<mxfile host="65bd71144e">
    <diagram id="HIP3nbAZw_EuaXWnEj3U" name="Page-1">
        <mxGraphModel dx="1045" dy="686" grid="1" gridSize="10" guides="1" tooltips="1" connect="1" arrows="1" fold="1" page="1" pageScale="1" pageWidth="850" pageHeight="1100" math="0" shadow="0">
            <root>
                <mxCell id="0"/>
                <mxCell id="1" parent="0"/>
                <mxCell id="7" value="http://ics2o.mths.ca" style="swimlane;whiteSpace=wrap;html=1;" parent="1" vertex="1">
                    <mxGeometry x="40" y="40" width="760" height="460" as="geometry"/>
                </mxCell>
                <mxCell id="8" value="&lt;font style=&quot;font-size: 17px;&quot;&gt;Random number generator&lt;/font&gt;" style="rounded=0;whiteSpace=wrap;html=1;align=left;" parent="7" vertex="1">
                    <mxGeometry y="20" width="760" height="50" as="geometry"/>
                </mxCell>
                <mxCell id="10" value="&lt;font style=&quot;font-size: 20px;&quot;&gt;Pick a number to guess!&lt;/font&gt;" style="text;html=1;strokeColor=none;fillColor=none;align=center;verticalAlign=middle;whiteSpace=wrap;rounded=0;fontSize=17;" vertex="1" parent="7">
                    <mxGeometry x="20" y="90" width="220" height="30" as="geometry"/>
                </mxCell>
                <mxCell id="11" value="Number..." style="rounded=0;whiteSpace=wrap;html=1;fontSize=20;align=left;" vertex="1" parent="7">
                    <mxGeometry x="20" y="150" width="150" height="40" as="geometry"/>
                </mxCell>
                <mxCell id="12" value="Guess" style="rounded=1;whiteSpace=wrap;html=1;fontSize=20;" vertex="1" parent="7">
                    <mxGeometry x="20" y="279.2" width="100" height="40" as="geometry"/>
                </mxCell>
                <mxCell id="13" value="" style="shape=image;verticalLabelPosition=bottom;labelBackgroundColor=default;verticalAlign=top;aspect=fixed;imageAspect=0;image=data:image/jpeg,/9j/4AAQSkZJRgABAQEAyADIAAD/4RjfRXhpZgAASUkqAAgAAAAMAA4BAgAgAAAAngAAAA8BAgAFAAAAvgAAABABAgAIAAAAwwAAABIBAwABAAAAAQAAABoBBQABAAAAywAAABsBBQABAAAA0wAAACgBAwABAAAAAgAAADEBAgAcAAAA2wAAADIBAgAUAAAA9wAAABMCAwABAAAAAgAAAKXEBwAcAAAACwEAAGmHBAABAAAAKAEAAAQDAAAgICAgICAgICAgICAgICAgICAgICAgICAgICAgICAgAFNPTlkARFNDLUgyMADIAAAAAQAAAMgAAAABAAAAQWRvYmUgUGhvdG9zaG9wIENTMiBXaW5kb3dzADIwMTA6MTE6MTUgMTI6NTU6NDkAUHJpbnRJTQAwMzAwAAACAAIAAQAAAAEBAQAAAAAdAJqCBQABAAAAigIAAJ2CBQABAAAAkgIAACKIAwABAAAAAgAAACeIAwABAAAAUAAAAACQBwAEAAAAMDIyMQOQAgAUAAAAmgIAAASQAgAUAAAArgIAAAGRBwAEAAAAAQIDAAKRBQABAAAAwgIAAASSCgABAAAAygIAAAWSBQABAAAA0gIAAAeSAwABAAAABQAAAAiSAwABAAAAAAAAAAmSAwABAAAAEAAAAAqSBQABAAAA2gIAAACgBwAEAAAAMDEwMAGgAwABAAAAAQAAAAKgBAABAAAAWAIAAAOgBAABAAAACwIAAAWgBAABAAAA5AIAAACjBwABAAAAAwAAAAGjBwABAAAAAQAAAAGkAwABAAAAAAAAAAKkAwABAAAAAAAAAAOkAwABAAAAAAAAAAakAwABAAAAAAAAAAikAwABAAAAAAAAAAmkAwABAAAAAAAAAAqkAwABAAAAAAAAAAAAAAAKAAAAQAYAACMAAAAKAAAAMjAxMDoxMToxNSAxMjowODoyMgAyMDEwOjExOjE1IDEyOjA4OjIyAAQAAAABAAAAAAAAAAoAAAA6AAAAEAAAAD8AAAAKAAAAAAACAAEAAgAEAAAAUjk4AAIABwAEAAAAMDEwMAAAAAAAAAYAAwEDAAEAAAAGAAAAGgEFAAEAAABSAwAAGwEFAAEAAABaAwAAKAEDAAEAAAACAAAAAQIEAAEAAABiAwAAAgIEAAEAAAB1FQAAAAAAAEgAAAABAAAASAAAAAEAAAD/2P/gABBKRklGAAECAABIAEgAAP/tAAxBZG9iZV9DTQAB/+4ADkFkb2JlAGSAAAAAAf/bAIQADAgICAkIDAkJDBELCgsRFQ8MDA8VGBMTFRMTGBEMDAwMDAwRDAwMDAwMDAwMDAwMDAwMDAwMDAwMDAwMDAwMDAENCwsNDg0QDg4QFA4ODhQUDg4ODhQRDAwMDAwREQwMDAwMDBEMDAwMDAwMDAwMDAwMDAwMDAwMDAwMDAwMDAwM/8AAEQgAiwCgAwEiAAIRAQMRAf/dAAQACv/EAT8AAAEFAQEBAQEBAAAAAAAAAAMAAQIEBQYHCAkKCwEAAQUBAQEBAQEAAAAAAAAAAQACAwQFBgcICQoLEAABBAEDAgQCBQcGCAUDDDMBAAIRAwQhEjEFQVFhEyJxgTIGFJGhsUIjJBVSwWIzNHKC0UMHJZJT8OHxY3M1FqKygyZEk1RkRcKjdDYX0lXiZfKzhMPTdePzRieUpIW0lcTU5PSltcXV5fVWZnaGlqa2xtbm9jdHV2d3h5ent8fX5/cRAAICAQIEBAMEBQYHBwYFNQEAAhEDITESBEFRYXEiEwUygZEUobFCI8FS0fAzJGLhcoKSQ1MVY3M08SUGFqKygwcmNcLSRJNUoxdkRVU2dGXi8rOEw9N14/NGlKSFtJXE1OT0pbXF1eX1VmZ2hpamtsbW5vYnN0dXZ3eHl6e3x//aAAwDAQACEQMRAD8A9VSSSSUpCuvbVDQNz3cN/vU3vbWwvdwFmve57i54BLuQdRHGxJTh9S/xmdA6dcyuw25ItaHssxq/Urc0lzN7Ln21tsbvrsZ+jWt0f619L61S67p7/VFW0XVmW2Vl43sbbU4e3d/J31rkcn/FtS706cHqTsfBotdfRh5GOzJFbn7fVqZebcex+NZ6df6Cz/z56j1s9H6L0j6s03PflN+0Zrg/JzMuyup1jpc4NrrLmV1U+o+zZXWkp6cZtXcOH3f3qYyaD+eB8dPyrNY9lrBZU9tlZ0D2OD2n+2wuaua+ufXuq9J+z04hbiUZbHgdUezeyvIaQace7c2yqmu5nt9Wxn+F9X/tNakp7trmu1aQfhqnXjv1c+vX1mfn42Pda3qzsq5tLcZra/Va2ZuvbbiNb6fpsd/hv1f+d/0a9XpyHiwVudvaSQHHlJTbSSULbBWwvOscDxKSmaSpfbLpn2x4Qf704zbO7QfvH96Sm4kqozfFn3FSGZUeQ4fKf+pSU2EkNuRQ7h4+en5VMEHUJKXSSSSU/wD/0PVUklC2wV1usP5olJTR6nm0UsfZkWNpxscbrbXmGj+U938mVyWV/jF6BjZz8F9Oa62t5rc5tLI3B3p7Wtdc2x3+Yt7qWDidVwMjp2bL6Mtu23aYdyLGvY7XbZXa1tjFx7/8WeY/IFh62HsawVMc/FDrQxjfRpGlwr9SqptbGW/8HX+4kp7LA6hhdRxm5eDc3Jx3OLQ9s/SaYexwdDmOauA+tH1R+sGTk5j34tnVW23uyMLLpLHWsZYffgZVVr2WtoqZ6f2f099dL6v0P6PJ/Rdx0TouF0Pp7en4W41hxsfY8y+yx0B9tm2G/RYxuxn0GK/CSXi/qP8AVrrfSs5+XlB+Dgeh6LMGx7Xvse7bYbraqi+qj07/AFX1/wCH/wAF/pF2hAc0scA5jhDmuALSPBzXe1y4763/AFn6zg59nS+nPrwLGUNyaMm8MIyBDvtFGOb2vpZZT+Z/pLKLKv8AC0LO+qn13+sGT1PD6f1Hb1EdQeGtdW2ttlTBuZbkPGM1vsY8eo/12/zNb/T/ADElPf4+Ji4277NRVj79H+jWyuf63pNZuUmWfrVQH74SsfsrJ79lVpt/XKG9zYPyoKehVPMs3PDBwzU/E/8AmKtucGtLjwBJ+SxOo9TwenYz83qNzcekES50ky4hoaytgfY/6TfoNRQ2EiQAXEgNaJc4mAAO7nH6KyulfWv6v9YuNHT8sW3ATseyyokSK/b6zGMdue7Yxu7eg/W3p/Wc7p1X7Gsb9px7fVdi2ECvJZtdW7Gu3wzb7v5ux3pv/kWekkl1ac/AyLDVj5VF1o5rrtre7/MY9z0DrdvVKek5N3SKm3Z7GtNNbwXAjc31iKmw617KfUeyr/Cf+BrzIfVn6wDMy6sH6vXUi3c3EfeW7aQ72Ns+0PPpepjY/q049u//ALs/z9a9S6bRl4/TsWjOv+1ZdVTGZGQJ97wPe+Xe53/GO/nf5xJD5ZZ9b+p4nVfWu65lvxy31XYzfpNOr3YNmPa306bPXY/D+h+jq/Wf5pem/VzqHUsvo2JndQoGJmWsLraGgtbAc4Vv9N3ur9arbbsd9BXyZcHkAvHDyAXD4PPvVXq2W7C6VnZwG52NjXXgHu6ut9jf+m1JTuAyJHdOhYwsGPULf5wMaH/1o9yKkp//0fVVW6iSMOwjy/KFZVbqAnDt8hP3GUlPn31m+udHQbK6fSdlZVjd7ag4Ma1k7N9lhD/puDtjGsS+r317xOsWjG2OxMsgllLyHNeBq70bWhu57f8ARvrYqP14+q2R1d1WdgAOzKGmp9LiG+pXJsZ6b3Qz1a3vf9P+dZ/xf6Tl+h/Vbrp6pi2PxLsNmNcy2zIuaaw0MdvOzd/Ovdt2s9JIKfWG9ReOSit6m0/SCy3u1kCJOirZl1tOJfdWz1H1Vvexn7xa1zw3+1tQS7mQ7pefT6Gdj1ZVM7vTvY2xoP7zW2D2u/qqfT8Lo+AHN6fi0YYsgP8AQrawuA7Pe0b7P7b14mPrX9ZDf9oGfaHO1DBHpjy9CPS2/wBlei/VT6wv6x08ZFjfTvqf6V7W/RLgA4WV/utsa76KKnqMq7c7aO3ZUen5VV/UaHVWNsaLdktIcNzTteyR+44e5VeudQODg5WUw/pKabLK/wCs1jnM/wCksj/F4x1WD0qtx9z3mwjye57x/wBFBT6Pmv21Bvd7g3/v3/fVyX1q+rmX1ezHzMC2oZWNXZQ7Hyt/oXU3fz1TzV7qrP5ez/R/zXo710XWrSwVDx3H7tv/AJJY/wC0HNPJCKnj+mf4uuvv2Y3U78bEwfXbfkfZXF99hZ/N1Mc1rKqq27rn1/6K2/1fTt/R7PSHOLnFx7mVlN6o4c6ojeqtPICVqb7RAiSY7nlOqreo0uRG5dLu6Sk6pdbxHZ3ScvBYdpyq/SJ8Guc0W/8AgPqK0y2t3f7lG10z8ElOuDIB8U6iz6I+AUkkP//S9TfYytu55gKtfk12UvrAPvaWyRpqITZ/06v7X/fVXSU0j0sOMm35Bv8A5kkOk097Hn4Bo/vV1Vs/qfTum1C7qGVViVukMda7buI+kK2fTs2/8G1JLD9k4nc2H5j/AMinHSsLmHmNfpn+Cj07rXR+qbv2bm05bmDc5lbveG/vOqfst2/2FdSU8xmf4tvqnlOe9lN2JY8lxdRaQATqdtNzbatv8hDwOg43QGHAxyXtDvUNro3WFwH6R0e1v0dmxdYFldabF1T/AN5pH3Gf+/JKec+sFldz302DdU5hre2YkPG1+qJ9SGGzrVFVY/Q4tbnR2DWt9Gv/AKb1R60SLHkmBPddf9Q+kOwulHNubGR1CLIPLaR/Rmf2mudf/wBeTQpu/WEx6I/kv/LWudedV0H1hBdbjsbqXB4A8ya1Qs6ZiY2PZlZ15bVSx1lrh7Wta0bnuLoe9ycpyi48+Cb1QDyFU6j9dPqz0zNdiO6dZklgDvVNjCHtLBkVWVAufvZcx/6P6C1sv609MwumfbsXHLnNyq8LIx2Mb6tFtmr/AFq6t3qvqb+ZVb+nu/Q+olSmvX9osP6Ot7/6rXH8gVqvD6o7ih4n96G/9W5q4+n6/fWy3qLqn5VYxq/fba7Faam0tcXWZTqvZl+l9n99bN/rPs9OpbeV9aOp9V+rOP1fpmK70W5FlHV6WFzXiprNu/Htr3XU1/pK7XXV+/Et9P1H2VVXPSpT0uPhdSrIddXtaOZcD/1KuV1OsuYwjRx1+A1cvG6Mi/pT7c52a55axhw3Y11jXXWWM24s+m7f6TPfk5zf9NT9it/S2r1v6t5fVLOj4OT1as1dQfVOTWWhjpk7XvqEelbbV6d1lP8Ag7ElPQJJgQ4Bw1B1BTpIf//T9Jz/AKVX9r/vqrqzn/4I+Z/IqySlLiPrb9XOv5PU8rMxaB1bp+ZTW37ILAy3HtpbtouobYWtezfv3+l/O05eXRZ+Zeu3SSU+dfVf6m9er6l07KysY9Kxen2G+zfaHW3WSWtYyusu2Veg2rHf6v8A3Ys/wy9FCUJJJXWd1sfoaX+DyP8AOH/mK0VX6hjW5WOKaWh1pc0tBMDT6Wp/kpKeYxej/tjrVeNYJxaouyvAsB9tP/oQ/wBn/FesvQlQ6R0xvTqHAkPvtO654HJiGsb+d6df5qvpIcPrri3MxyOzXH8WpsjGxuoYFuJkt9THyazXayYlrhrDvzXN+kxF+sFJIovbHtcWHx93ub/1CDhP9mw6kJKeMv8A8WFrcmu7CzqA2rcGi6lwOo9ltgpc6uy2p36T/BVPt/wf+DW99X/qb0zovSsjpz/18ZpBzX3NAbZt/mmNpl3p11fTZ+k9b1f0vqrfQTmYYt9A5NIu49L1Wb5/4vfvSS4Vn1A+rFjy51WQGPAFlQyH7Xhp3sZY4zkOY1/v/n1u4eJjYOPXi4VTcbHoEVVVja1omT/ac47nv+m9EtsZS0vtIra2AS7TUna1v9Z7nbGM/PXNv/xifVdt/omzIgTNvoO2iHem72OIyPp/8Akp6MU0Nt9dtVbbjM2hjQ/X6X6UN9RTHKyeqfWLB6bRj22W1POdY6jEJcWV+o3du+1XQ52PXW8elkfovUos/wAH9Nclg/4zOp5GezGdh4cEgPb6j2bI3HIc/Ic+ytrMeut1nqenYlSn0/DfLSw/m6j4FWFhfV/reF1fDp6lhOJosc6twdo5rmnbZW8fyfa//i1upIf/1PSuoaVsP8v+DlU9RniFa6oYob/XH5HLFfYZ5SU3/Wr8Uxvr8VnGx3im3lJLonIrTHKYFn7iuW+vnX+o9Jw8arp5NVuY57XZI1LGsDSWVz9G2z1Pp/mMSQ9ycpo1IgeKLjXh11cfvflG1eB4/wBYevY94uq6jkCxusvtc9rv+MrtL2Pb/XavaOg5VuVj4OTcz0rb2U2Pr/dc8Nc5uv8AWRU9SkkkgpzeumMNh/4Vv8VmY9m14Pbgqz9cs2nA6G/NvJFNNlZsLRJAc4VTH9axcT136xZNGB1tmKfTyui5GGWPaT767Sx7t38n1R6T/wB+mxJT1P1mb1d3RLz0bXNaa3tYBLnsY9r76WNP0n21t/m/8Mz9D/hF5Jk1U2Z1t+XdVi0H1n347GentlzXX4mNRb6dvqWuc1lVf06fU/wddVi9px8mq6iu9h/R3MbYz+q9osb/ANFym6+rcLHQXjh5ALh8Hn3JJeK6H0zrP1h+qmZi9Raen02313dIYQ8CtlfvFWwu+0fYd7dlT9/q/wA7kVrEt+of1qx+pnKx8VuQ8jfXf9oqDWXz7b7XXFjrfTd+n/mf0ln7i9Odl1zMyfFQOY3sErU8/wBJ+o9NX1dHSur2nJyHZDsw31mTVc4NZ+hfc0+s3Yz9Y9er08j1LPYs53+LAmy0M6sasfIAZc1uODYWNLXekx7rttbHbGbl1xzHdkN2VYe6SknR+k4PRun1dOwgW0Vydzzue9ztbLrn+3dZYtyh++pru/B+I0XPC95PK2umknHk93H+CSH/1fSeqf0Yf1wsF/K6DqY/U3HwLT/0mrAfykpgh5GTj4tL8jJtbTTWJfa87WgeZKIuV/xgdL6l1Dp2O7CY+6vGsc++ivVxlobXa1g91no+/wCj/pUVNxn15+q77hUMwt3GBa+qxtc/8YWf9U1amd0/A6rifZ8ytuTjvh7de8ey2q2s7mu2u/nK3LxrFwc/LyPs+Pj232kx6bGOJH4ezb/KXrv1ewL+m9FxMHIfvupYQ+DIBc51npNd+7Vv9NJTQwvqJ9W8PIGQKbMhzTLG5Fm9gPj6TW1ts/67vXUYjovY4n89pJ/tBV5UmvLIcOQ5p/EIKerSSSSU4H19w3Zv1Q6pSwbnCg2gD/giL/8A0WvMcTEu6ldnVAFzur9AquYP3r8Y4zG8/nvvw/8AwVe1W1MuqfVYJZY0scPEOG1y4PpWA3p7/se0B2GHY7TGoa12u1zvfst2ssSU3ehi5nQOmV2tLbm4tLXtcCHBwY1u1wd+cuF+sv8AjBz/ALXbidHeKMehxYcraH2WOb7Xmv1NzKqd30Pb6v5/8heiyQ1pHPOq876p/i2zn5dj+m5FH2Wxxc1l5e17Nx3bD6ddrbWt/eRUh+q/1x65Z1fGxM285uPl2CkteBvaXfRsrsaGu9jvpsd7Ni9GC5r6sfUnF6Jd9syLRl5wBFbg3bXVI2uNTXe99jm/4V/+YulQUukmSSSybyug6cIxGecn8SufbyuiwRGJUP5M/fqkp//W9M6iJwrfIT9x3LjvrH1mnonT7M6xhtIcK6qgY32PnY0u/Mb7XOeu3ur9Wl9RMb2ls+EiFyHXej1Z2Jbg9SqcKnwS8SNrh7mW03Rt3N/9WIqfOXf4xfrD6u6MUN7U+kdvw9T1PW/6a7n6v9ar6101mc2s0v3OrtrmQ17I3bHfnMdua5i5ln+K5r8jcOoWWUEyAzHl5E8b/UdV/b2LsemdE/Z2HXh4WJa2muY3NJc4u1fZY9wZue9JTYL3kQXEg+ahKsN6b1J3GO4fEtH/AFT1JvR+pu5ra3+s8f8AfN6SmruUqx6ltVf79jGx8XNV5n1ey3fzl1bB/JDn/l9JXcHotOLaLnvN1jfoSIa3+UG/vJKdJJJJBSlzfW8X0eqtyWj25TPd/Xrhv/Sq9P8A7bXSKj1fG9fCcQJfSRaz+z9P/Or3pKcZ30G/BQU3Rtb8FBJK0J0kklK7wFzfUfr99XsK00sdbmuaYc7GaHVgj/hrH1ss/wCtb1f+s2Pn5XQc3G6fP2m2sNa0GC5u5vr1s/lWU72f9BeV19A67fkCmnp+TvmNrqnsA/rvsayuv+25FD650XrWB1nF+1YL3OY07bGPG17HRu2WMl35v7rl2dDdtFbfBoH4LgvqP9Wbel4jqHEWZeU8WZTmasYGjbXVv/O9Nu/3/n2P9i9BQU//1/VUkkklKSSSSUpJJJJSkkkklKSSSSUpJJJJTi5fS72OP2du+r81oIBaP3fcq7OnZ79RSR5uLR/HcuiSSU4bei5h+k6tnzLj/wBS1GZ0Ef4S8keDWgf9UXrWSSU57OiYI+nvs/rOI/8APexHZ07CZxS0/wBYbv8Aq9yspJKWa1rRDQAPAaJ0kklP/9n/7Rt+UGhvdG9zaG9wIDMuMAA4QklNBAQAAAAAACscAgAAAgACHAJ4AB8gICAgICAgICAgICAgICAgICAgICAgICAgICAgICAgADhCSU0EJQAAAAAAEPsJpr0HTCo2nY/izFeprIU4QklNA+0AAAAAABAAyAAAAAEAAQDIAAAAAQABOEJJTQQmAAAAAAAOAAAAAAAAAAAAAD+AAAA4QklNBA0AAAAAAAQAAAAeOEJJTQQZAAAAAAAEAAAAHjhCSU0D8wAAAAAACQAAAAAAAAAAAQA4QklNBAoAAAAAAAEAADhCSU0nEAAAAAAACgABAAAAAAAAAAI4QklNA/UAAAAAAEgAL2ZmAAEAbGZmAAYAAAAAAAEAL2ZmAAEAoZmaAAYAAAAAAAEAMgAAAAEAWgAAAAYAAAAAAAEANQAAAAEALQAAAAYAAAAAAAE4QklNA/gAAAAAAHAAAP////////////////////////////8D6AAAAAD/////////////////////////////A+gAAAAA/////////////////////////////wPoAAAAAP////////////////////////////8D6AAAOEJJTQQIAAAAAAAQAAAAAQAAAkAAAAJAAAAAADhCSU0EHgAAAAAABAAAAAA4QklNBBoAAAAAA0UAAAAGAAAAAAAAAAAAAANnAAAD6AAAAAgARABTAEMAMAAyADUANAA1AAAAAQAAAAAAAAAAAAAAAAAAAAAAAAABAAAAAAAAAAAAAAPoAAADZwAAAAAAAAAAAAAAAAAAAAABAAAAAAAAAAAAAAAAAAAAAAAAABAAAAABAAAAAAAAbnVsbAAAAAIAAAAGYm91bmRzT2JqYwAAAAEAAAAAAABSY3QxAAAABAAAAABUb3AgbG9uZwAAAAAAAAAATGVmdGxvbmcAAAAAAAAAAEJ0b21sb25nAAADZwAAAABSZ2h0bG9uZwAAA+gAAAAGc2xpY2VzVmxMcwAAAAFPYmpjAAAAAQAAAAAABXNsaWNlAAAAEgAAAAdzbGljZUlEbG9uZwAAAAAAAAAHZ3JvdXBJRGxvbmcAAAAAAAAABm9yaWdpbmVudW0AAAAMRVNsaWNlT3JpZ2luAAAADWF1dG9HZW5lcmF0ZWQAAAAAVHlwZWVudW0AAAAKRVNsaWNlVHlwZQAAAABJbWcgAAAABmJvdW5kc09iamMAAAABAAAAAAAAUmN0MQAAAAQAAAAAVG9wIGxvbmcAAAAAAAAAAExlZnRsb25nAAAAAAAAAABCdG9tbG9uZwAAA2cAAAAAUmdodGxvbmcAAAPoAAAAA3VybFRFWFQAAAABAAAAAAAAbnVsbFRFWFQAAAABAAAAAAAATXNnZVRFWFQAAAABAAAAAAAGYWx0VGFnVEVYVAAAAAEAAAAAAA5jZWxsVGV4dElzSFRNTGJvb2wBAAAACGNlbGxUZXh0VEVYVAAAAAEAAAAAAAlob3J6QWxpZ25lbnVtAAAAD0VTbGljZUhvcnpBbGlnbgAAAAdkZWZhdWx0AAAACXZlcnRBbGlnbmVudW0AAAAPRVNsaWNlVmVydEFsaWduAAAAB2RlZmF1bHQAAAALYmdDb2xvclR5cGVlbnVtAAAAEUVTbGljZUJHQ29sb3JUeXBlAAAAAE5vbmUAAAAJdG9wT3V0c2V0bG9uZwAAAAAAAAAKbGVmdE91dHNldGxvbmcAAAAAAAAADGJvdHRvbU91dHNldGxvbmcAAAAAAAAAC3JpZ2h0T3V0c2V0bG9uZwAAAAAAOEJJTQQoAAAAAAAMAAAAAT/wAAAAAAAAOEJJTQQUAAAAAAAEAAAAAThCSU0EDAAAAAAVkQAAAAEAAACgAAAAiwAAAeAAAQSgAAAVdQAYAAH/2P/gABBKRklGAAECAABIAEgAAP/tAAxBZG9iZV9DTQAB/+4ADkFkb2JlAGSAAAAAAf/bAIQADAgICAkIDAkJDBELCgsRFQ8MDA8VGBMTFRMTGBEMDAwMDAwRDAwMDAwMDAwMDAwMDAwMDAwMDAwMDAwMDAwMDAENCwsNDg0QDg4QFA4ODhQUDg4ODhQRDAwMDAwREQwMDAwMDBEMDAwMDAwMDAwMDAwMDAwMDAwMDAwMDAwMDAwM/8AAEQgAiwCgAwEiAAIRAQMRAf/dAAQACv/EAT8AAAEFAQEBAQEBAAAAAAAAAAMAAQIEBQYHCAkKCwEAAQUBAQEBAQEAAAAAAAAAAQACAwQFBgcICQoLEAABBAEDAgQCBQcGCAUDDDMBAAIRAwQhEjEFQVFhEyJxgTIGFJGhsUIjJBVSwWIzNHKC0UMHJZJT8OHxY3M1FqKygyZEk1RkRcKjdDYX0lXiZfKzhMPTdePzRieUpIW0lcTU5PSltcXV5fVWZnaGlqa2xtbm9jdHV2d3h5ent8fX5/cRAAICAQIEBAMEBQYHBwYFNQEAAhEDITESBEFRYXEiEwUygZEUobFCI8FS0fAzJGLhcoKSQ1MVY3M08SUGFqKygwcmNcLSRJNUoxdkRVU2dGXi8rOEw9N14/NGlKSFtJXE1OT0pbXF1eX1VmZ2hpamtsbW5vYnN0dXZ3eHl6e3x//aAAwDAQACEQMRAD8A9VSSSSUpCuvbVDQNz3cN/vU3vbWwvdwFmve57i54BLuQdRHGxJTh9S/xmdA6dcyuw25ItaHssxq/Urc0lzN7Ln21tsbvrsZ+jWt0f619L61S67p7/VFW0XVmW2Vl43sbbU4e3d/J31rkcn/FtS706cHqTsfBotdfRh5GOzJFbn7fVqZebcex+NZ6df6Cz/z56j1s9H6L0j6s03PflN+0Zrg/JzMuyup1jpc4NrrLmV1U+o+zZXWkp6cZtXcOH3f3qYyaD+eB8dPyrNY9lrBZU9tlZ0D2OD2n+2wuaua+ufXuq9J+z04hbiUZbHgdUezeyvIaQace7c2yqmu5nt9Wxn+F9X/tNakp7trmu1aQfhqnXjv1c+vX1mfn42Pda3qzsq5tLcZra/Va2ZuvbbiNb6fpsd/hv1f+d/0a9XpyHiwVudvaSQHHlJTbSSULbBWwvOscDxKSmaSpfbLpn2x4Qf704zbO7QfvH96Sm4kqozfFn3FSGZUeQ4fKf+pSU2EkNuRQ7h4+en5VMEHUJKXSSSSU/wD/0PVUklC2wV1usP5olJTR6nm0UsfZkWNpxscbrbXmGj+U938mVyWV/jF6BjZz8F9Oa62t5rc5tLI3B3p7Wtdc2x3+Yt7qWDidVwMjp2bL6Mtu23aYdyLGvY7XbZXa1tjFx7/8WeY/IFh62HsawVMc/FDrQxjfRpGlwr9SqptbGW/8HX+4kp7LA6hhdRxm5eDc3Jx3OLQ9s/SaYexwdDmOauA+tH1R+sGTk5j34tnVW23uyMLLpLHWsZYffgZVVr2WtoqZ6f2f099dL6v0P6PJ/Rdx0TouF0Pp7en4W41hxsfY8y+yx0B9tm2G/RYxuxn0GK/CSXi/qP8AVrrfSs5+XlB+Dgeh6LMGx7Xvse7bYbraqi+qj07/AFX1/wCH/wAF/pF2hAc0scA5jhDmuALSPBzXe1y4763/AFn6zg59nS+nPrwLGUNyaMm8MIyBDvtFGOb2vpZZT+Z/pLKLKv8AC0LO+qn13+sGT1PD6f1Hb1EdQeGtdW2ttlTBuZbkPGM1vsY8eo/12/zNb/T/ADElPf4+Ji4277NRVj79H+jWyuf63pNZuUmWfrVQH74SsfsrJ79lVpt/XKG9zYPyoKehVPMs3PDBwzU/E/8AmKtucGtLjwBJ+SxOo9TwenYz83qNzcekES50ky4hoaytgfY/6TfoNRQ2EiQAXEgNaJc4mAAO7nH6KyulfWv6v9YuNHT8sW3ATseyyokSK/b6zGMdue7Yxu7eg/W3p/Wc7p1X7Gsb9px7fVdi2ECvJZtdW7Gu3wzb7v5ux3pv/kWekkl1ac/AyLDVj5VF1o5rrtre7/MY9z0DrdvVKek5N3SKm3Z7GtNNbwXAjc31iKmw617KfUeyr/Cf+BrzIfVn6wDMy6sH6vXUi3c3EfeW7aQ72Ns+0PPpepjY/q049u//ALs/z9a9S6bRl4/TsWjOv+1ZdVTGZGQJ97wPe+Xe53/GO/nf5xJD5ZZ9b+p4nVfWu65lvxy31XYzfpNOr3YNmPa306bPXY/D+h+jq/Wf5pem/VzqHUsvo2JndQoGJmWsLraGgtbAc4Vv9N3ur9arbbsd9BXyZcHkAvHDyAXD4PPvVXq2W7C6VnZwG52NjXXgHu6ut9jf+m1JTuAyJHdOhYwsGPULf5wMaH/1o9yKkp//0fVVW6iSMOwjy/KFZVbqAnDt8hP3GUlPn31m+udHQbK6fSdlZVjd7ag4Ma1k7N9lhD/puDtjGsS+r317xOsWjG2OxMsgllLyHNeBq70bWhu57f8ARvrYqP14+q2R1d1WdgAOzKGmp9LiG+pXJsZ6b3Qz1a3vf9P+dZ/xf6Tl+h/Vbrp6pi2PxLsNmNcy2zIuaaw0MdvOzd/Ovdt2s9JIKfWG9ReOSit6m0/SCy3u1kCJOirZl1tOJfdWz1H1Vvexn7xa1zw3+1tQS7mQ7pefT6Gdj1ZVM7vTvY2xoP7zW2D2u/qqfT8Lo+AHN6fi0YYsgP8AQrawuA7Pe0b7P7b14mPrX9ZDf9oGfaHO1DBHpjy9CPS2/wBlei/VT6wv6x08ZFjfTvqf6V7W/RLgA4WV/utsa76KKnqMq7c7aO3ZUen5VV/UaHVWNsaLdktIcNzTteyR+44e5VeudQODg5WUw/pKabLK/wCs1jnM/wCksj/F4x1WD0qtx9z3mwjye57x/wBFBT6Pmv21Bvd7g3/v3/fVyX1q+rmX1ezHzMC2oZWNXZQ7Hyt/oXU3fz1TzV7qrP5ez/R/zXo710XWrSwVDx3H7tv/AJJY/wC0HNPJCKnj+mf4uuvv2Y3U78bEwfXbfkfZXF99hZ/N1Mc1rKqq27rn1/6K2/1fTt/R7PSHOLnFx7mVlN6o4c6ojeqtPICVqb7RAiSY7nlOqreo0uRG5dLu6Sk6pdbxHZ3ScvBYdpyq/SJ8Guc0W/8AgPqK0y2t3f7lG10z8ElOuDIB8U6iz6I+AUkkP//S9TfYytu55gKtfk12UvrAPvaWyRpqITZ/06v7X/fVXSU0j0sOMm35Bv8A5kkOk097Hn4Bo/vV1Vs/qfTum1C7qGVViVukMda7buI+kK2fTs2/8G1JLD9k4nc2H5j/AMinHSsLmHmNfpn+Cj07rXR+qbv2bm05bmDc5lbveG/vOqfst2/2FdSU8xmf4tvqnlOe9lN2JY8lxdRaQATqdtNzbatv8hDwOg43QGHAxyXtDvUNro3WFwH6R0e1v0dmxdYFldabF1T/AN5pH3Gf+/JKec+sFldz302DdU5hre2YkPG1+qJ9SGGzrVFVY/Q4tbnR2DWt9Gv/AKb1R60SLHkmBPddf9Q+kOwulHNubGR1CLIPLaR/Rmf2mudf/wBeTQpu/WEx6I/kv/LWudedV0H1hBdbjsbqXB4A8ya1Qs6ZiY2PZlZ15bVSx1lrh7Wta0bnuLoe9ycpyi48+Cb1QDyFU6j9dPqz0zNdiO6dZklgDvVNjCHtLBkVWVAufvZcx/6P6C1sv609MwumfbsXHLnNyq8LIx2Mb6tFtmr/AFq6t3qvqb+ZVb+nu/Q+olSmvX9osP6Ot7/6rXH8gVqvD6o7ih4n96G/9W5q4+n6/fWy3qLqn5VYxq/fba7Faam0tcXWZTqvZl+l9n99bN/rPs9OpbeV9aOp9V+rOP1fpmK70W5FlHV6WFzXiprNu/Htr3XU1/pK7XXV+/Et9P1H2VVXPSpT0uPhdSrIddXtaOZcD/1KuV1OsuYwjRx1+A1cvG6Mi/pT7c52a55axhw3Y11jXXWWM24s+m7f6TPfk5zf9NT9it/S2r1v6t5fVLOj4OT1as1dQfVOTWWhjpk7XvqEelbbV6d1lP8Ag7ElPQJJgQ4Bw1B1BTpIf//T9Jz/AKVX9r/vqrqzn/4I+Z/IqySlLiPrb9XOv5PU8rMxaB1bp+ZTW37ILAy3HtpbtouobYWtezfv3+l/O05eXRZ+Zeu3SSU+dfVf6m9er6l07KysY9Kxen2G+zfaHW3WSWtYyusu2Veg2rHf6v8A3Ys/wy9FCUJJJXWd1sfoaX+DyP8AOH/mK0VX6hjW5WOKaWh1pc0tBMDT6Wp/kpKeYxej/tjrVeNYJxaouyvAsB9tP/oQ/wBn/FesvQlQ6R0xvTqHAkPvtO654HJiGsb+d6df5qvpIcPrri3MxyOzXH8WpsjGxuoYFuJkt9THyazXayYlrhrDvzXN+kxF+sFJIovbHtcWHx93ub/1CDhP9mw6kJKeMv8A8WFrcmu7CzqA2rcGi6lwOo9ltgpc6uy2p36T/BVPt/wf+DW99X/qb0zovSsjpz/18ZpBzX3NAbZt/mmNpl3p11fTZ+k9b1f0vqrfQTmYYt9A5NIu49L1Wb5/4vfvSS4Vn1A+rFjy51WQGPAFlQyH7Xhp3sZY4zkOY1/v/n1u4eJjYOPXi4VTcbHoEVVVja1omT/ac47nv+m9EtsZS0vtIra2AS7TUna1v9Z7nbGM/PXNv/xifVdt/omzIgTNvoO2iHem72OIyPp/8Akp6MU0Nt9dtVbbjM2hjQ/X6X6UN9RTHKyeqfWLB6bRj22W1POdY6jEJcWV+o3du+1XQ52PXW8elkfovUos/wAH9Nclg/4zOp5GezGdh4cEgPb6j2bI3HIc/Ic+ytrMeut1nqenYlSn0/DfLSw/m6j4FWFhfV/reF1fDp6lhOJosc6twdo5rmnbZW8fyfa//i1upIf/1PSuoaVsP8v+DlU9RniFa6oYob/XH5HLFfYZ5SU3/Wr8Uxvr8VnGx3im3lJLonIrTHKYFn7iuW+vnX+o9Jw8arp5NVuY57XZI1LGsDSWVz9G2z1Pp/mMSQ9ycpo1IgeKLjXh11cfvflG1eB4/wBYevY94uq6jkCxusvtc9rv+MrtL2Pb/XavaOg5VuVj4OTcz0rb2U2Pr/dc8Nc5uv8AWRU9SkkkgpzeumMNh/4Vv8VmY9m14Pbgqz9cs2nA6G/NvJFNNlZsLRJAc4VTH9axcT136xZNGB1tmKfTyui5GGWPaT767Sx7t38n1R6T/wB+mxJT1P1mb1d3RLz0bXNaa3tYBLnsY9r76WNP0n21t/m/8Mz9D/hF5Jk1U2Z1t+XdVi0H1n347GentlzXX4mNRb6dvqWuc1lVf06fU/wddVi9px8mq6iu9h/R3MbYz+q9osb/ANFym6+rcLHQXjh5ALh8Hn3JJeK6H0zrP1h+qmZi9Raen02313dIYQ8CtlfvFWwu+0fYd7dlT9/q/wA7kVrEt+of1qx+pnKx8VuQ8jfXf9oqDWXz7b7XXFjrfTd+n/mf0ln7i9Odl1zMyfFQOY3sErU8/wBJ+o9NX1dHSur2nJyHZDsw31mTVc4NZ+hfc0+s3Yz9Y9er08j1LPYs53+LAmy0M6sasfIAZc1uODYWNLXekx7rttbHbGbl1xzHdkN2VYe6SknR+k4PRun1dOwgW0Vydzzue9ztbLrn+3dZYtyh++pru/B+I0XPC95PK2umknHk93H+CSH/1fSeqf0Yf1wsF/K6DqY/U3HwLT/0mrAfykpgh5GTj4tL8jJtbTTWJfa87WgeZKIuV/xgdL6l1Dp2O7CY+6vGsc++ivVxlobXa1g91no+/wCj/pUVNxn15+q77hUMwt3GBa+qxtc/8YWf9U1amd0/A6rifZ8ytuTjvh7de8ey2q2s7mu2u/nK3LxrFwc/LyPs+Pj232kx6bGOJH4ezb/KXrv1ewL+m9FxMHIfvupYQ+DIBc51npNd+7Vv9NJTQwvqJ9W8PIGQKbMhzTLG5Fm9gPj6TW1ts/67vXUYjovY4n89pJ/tBV5UmvLIcOQ5p/EIKerSSSSU4H19w3Zv1Q6pSwbnCg2gD/giL/8A0WvMcTEu6ldnVAFzur9AquYP3r8Y4zG8/nvvw/8AwVe1W1MuqfVYJZY0scPEOG1y4PpWA3p7/se0B2GHY7TGoa12u1zvfst2ssSU3ehi5nQOmV2tLbm4tLXtcCHBwY1u1wd+cuF+sv8AjBz/ALXbidHeKMehxYcraH2WOb7Xmv1NzKqd30Pb6v5/8heiyQ1pHPOq876p/i2zn5dj+m5FH2Wxxc1l5e17Nx3bD6ddrbWt/eRUh+q/1x65Z1fGxM285uPl2CkteBvaXfRsrsaGu9jvpsd7Ni9GC5r6sfUnF6Jd9syLRl5wBFbg3bXVI2uNTXe99jm/4V/+YulQUukmSSSybyug6cIxGecn8SufbyuiwRGJUP5M/fqkp//W9M6iJwrfIT9x3LjvrH1mnonT7M6xhtIcK6qgY32PnY0u/Mb7XOeu3ur9Wl9RMb2ls+EiFyHXej1Z2Jbg9SqcKnwS8SNrh7mW03Rt3N/9WIqfOXf4xfrD6u6MUN7U+kdvw9T1PW/6a7n6v9ar6101mc2s0v3OrtrmQ17I3bHfnMdua5i5ln+K5r8jcOoWWUEyAzHl5E8b/UdV/b2LsemdE/Z2HXh4WJa2muY3NJc4u1fZY9wZue9JTYL3kQXEg+ahKsN6b1J3GO4fEtH/AFT1JvR+pu5ra3+s8f8AfN6SmruUqx6ltVf79jGx8XNV5n1ey3fzl1bB/JDn/l9JXcHotOLaLnvN1jfoSIa3+UG/vJKdJJJJBSlzfW8X0eqtyWj25TPd/Xrhv/Sq9P8A7bXSKj1fG9fCcQJfSRaz+z9P/Or3pKcZ30G/BQU3Rtb8FBJK0J0kklK7wFzfUfr99XsK00sdbmuaYc7GaHVgj/hrH1ss/wCtb1f+s2Pn5XQc3G6fP2m2sNa0GC5u5vr1s/lWU72f9BeV19A67fkCmnp+TvmNrqnsA/rvsayuv+25FD650XrWB1nF+1YL3OY07bGPG17HRu2WMl35v7rl2dDdtFbfBoH4LgvqP9Wbel4jqHEWZeU8WZTmasYGjbXVv/O9Nu/3/n2P9i9BQU//1/VUkkklKSSSSUpJJJJSkkkklKSSSSUpJJJJTi5fS72OP2du+r81oIBaP3fcq7OnZ79RSR5uLR/HcuiSSU4bei5h+k6tnzLj/wBS1GZ0Ef4S8keDWgf9UXrWSSU57OiYI+nvs/rOI/8APexHZ07CZxS0/wBYbv8Aq9yspJKWa1rRDQAPAaJ0kklP/9kAOEJJTQQhAAAAAABVAAAAAQEAAAAPAEEAZABvAGIAZQAgAFAAaABvAHQAbwBzAGgAbwBwAAAAEwBBAGQAbwBiAGUAIABQAGgAbwB0AG8AcwBoAG8AcAAgAEMAUwAyAAAAAQA4QklNBAYAAAAAAAcACAAAAAEBAP/bAEMABgQFBgUEBgYFBgcHBggKEAoKCQkKFA4PDBAXFBgYFxQWFhodJR8aGyMcFhYgLCAjJicpKikZHy0wLSgwJSgpKP/bAEMBBwcHCggKEwoKEygaFhooKCgoKCgoKCgoKCgoKCgoKCgoKCgoKCgoKCgoKCgoKCgoKCgoKCgoKCgoKCgoKCgoKP/AABEIAgsCWAMBIgACEQEDEQH/xAAdAAEAAQUBAQEAAAAAAAAAAAAAAQIDBAUGBwgJ/8QAShAAAQMCBAQDBQUGAwYFAwUAAQACAwQRBQYhMQcSQVETYXEUIjKBkQhCobHBFSMkUmJyMzTRFiU1Y3PhQ0RTgvAYsvEmVJLC0v/EABcBAQEBAQAAAAAAAAAAAAAAAAABAgP/xAAdEQEBAQADAQEBAQAAAAAAAAAAARECITFBElFx/9oADAMBAAIRAxEAPwD6pREQEREBERAREQEREBERAREQEVqaphh/xJGg9uqwZsWYNImF3mdEGzRan9rED3oh8nKtuLsPxROHoboNmiwWYpTuGvO31CutrqZwv4oHqgyUVDZonWtIw381Xcd0BERAREQEREBERAREQEREBERAREQEREBERAREQEREBERAREQEREBERAREQEREBERAREQEREBERAREQEREBERAREQEREBERAREQEREBERAREQEREBa/EMQbDeOIgydT/KqsVqvZ4eVh/eP28h3Wh3vfU9UFRPMS5xuT1KwsSxKkwylkqa+ojp4GAlz5HAABRiVWyhoqipldaOGNz3HyAuvlii4o11fnNuMYqxstGbtipjcsjZrrbqVR6vjvHbLlC98eG01ZibweXnYOSO/qf8ARcjW/aHrWPDaTAqLlPWSoc4j6NWj4rYNiNU6PMlNQUowuoY1/i07xoCNnN7ryivgfHI0vbyh+rfNIWPfKT7QsrYWvrcCieSdfZ5yNO9iP1XpeW+I2FYzTwSzw1WHCf8AwzVABrj5OBsvkKjpJZpoaeJhMsjg0BZuMSVFO91JJNMzkBa6MmwHyVwx9yxyNexr2EFrhcEagq6x7mm7XEHyNl88fZ1znVvr/wDZmvkdJCYi+le5xJHLu39V9BNNwCs3oZbKqZp92V/1urrMQqGi3OD6hYQCbKK2IxSYAXawnqrzMWbf34iPQ3WnKB2qDfx4jTusCS0nuFfZUwv+GVh+a5u+icwVR1N7ouYa97Phe5o8jZX2V1Qwj94T5EXQdAi0zMUlbYOax3foVfZizD8cbh6G6DZIsaKup5DYPsf6hZZKAiIgIiICIiAiIgIiICIiAiIgIiICIiAiIgIiICIiAiIgIiICIiAiIgIiICIiAiIgIiICIiAiIgIiICIiAiIgIiICplkbFG57zZoFyqlpcYqvEf4LDdrT7xHdBh1EzqiZ0juuw7BWyoQoMDGKJtfh1VSPJDJ43RkjsRZfE+PYDWZYxeXCcUjdHLFcRyHQSM6OBX3KQtFmzKmD5rovZcbo46hmvK+1ns82u3Cqx87cNMzYTVYDieU83TNjoJ4z7NM51ix1jpf6Lz7Fo6QVHsZnEohkDWTHYtXsWPfZ3kEjn5cx1oZ92CtjJsO3ONfwXOu4AZva+wqcJdfqJnf/AOUPWNkCnwWip8YzBiUkUjaCPkpo+bV8hG9l52+pdW109RUEulnkLgxuu50C9cw77PWOyutiWOYdTRH4hTsdIT9bBepZH4Q5byu+OoMb8SrmHmE9SB7p8h0TV/1yHAHIdVQVLsxYxTmnmLOWmjfuAdz817s0ANF1DWgAWAt0t0VVlLUt0S6KCsifVNLqLEqVRJKi6Fa3HMShwfCazEKknwaaJ0rrDoBdIjKq6yCkjdJUzxQxjd0jrALicS4s5Roqh0AxJ1VK3RwponPDfU2svH8E4mVeOY8+bEi5tPUv5WR6ERRnbQ6XsuIzpRyUGOVBjimZTyuJikc2wePJa+4uPeKjj1laCUN9nxOT+psQt+a3uHcXsn1hjbLiRpHv2FQwtA9Tsvj6cPbPqdSs+jidNUNiLmNFtSdQrmo+6KHEqSvgbLRVMNTC4XD4nBzT8wtjBVSxW8N5A7HUL5DZnvEMsw0dJgvh05gs54Dbc/cFfQ3DXOdNnTABXU4MU0TvDmhcdWOUsxXpEOJ7CZnzas+KVkrOaNwIXNMOmquxyuhdzRuIKiOjRYtBV+0tcC2zm7+aykBERAREQEREBFRNKyFhfIQAFp6nEJpHnwiY2dAN0G7JA3Rcy8vf8b3O9TdS172iwkeB5OKDpUXPNqp2iwmdb6q42vqQLeIPm1BvUWm/ac43awq4MVd1hHycg2qLXDFY+sb/AMFcGJ0+ly4f+1BmoscV1MbfvW/NXBPCdpWH/wBwQXES4PUIgIiICIiAiIgIiICIiAiIgIiICIiAiIgIiICIiAiIgIiICIoc4NaXONgNSUGNiFT7PASPjdo0LnGs5S5wHvONyT1KyayoNTUF/wB0aNHkrPVRUKLKrsiCn5JbVSU6IBVNlUo9UDlU7Km9xey0+ZMxYdl6l8fE6hsZf7sUd/fkd2aOpTEbq9ymttAV4LnnjBmXCpxBTZeZhQkF2yVzudxHQhrTYfMrznGOK+cJiXtx2phdb/y4bGz6WKuD6+uf+6AhfH1BxZzZDFzuxyskm7Shr2/Sy9H4e8Vs041VGCehwytbCwukc15gkcPK5tdMHvl9EXMZQznhWZ2zChkcyphdyy08uj2H9fVdO09kXwta602bsLOM5ZxTDWENfVU742nsSNFurhUkbpEfCs1JVYbUPoqmN1NX0x5XsO7SOvovQo8dps9ZMGEYn4cOYaEg0ch9xsgttfZe35/4cYRm/mqJmey4mGFrKqMa+QcOoXguYuDOdsMqXyUFJDicAPuyUsoa4+rXFaa6cRUYPO6eLxHNa/nLHtLtWkLd5cw1zYsRxUu/h6EcpfuC7oFr6jJWboJuWfL2LiQkk2hLgT6hbWg4ecQK2kNJTYFXxUszgXCZ7Y2E9yCU1MczXVr8Rq5aupeC+TU6WsvoP7MmE1dNg2J187XMpauRvgtI3sNXfNa7IfAd0To6nN80bnN19lgddvo4r3mhpIaKmjp6WJsMEY5WMaLABTVuSMhmyk6KQqJHWURm4RLy1gb0eCFvVy2Hu/3hD/cupQoiIiCIiAhNgSdgiwcXm8On5Gn3n6fLqg1lVM6pnc8k8oPujsFaUIN0UQnTRSoUA/im3qnVLaoF+6AoUQEKIgjqp5RdEF7oGxuCb+RVbZZQQWyvBH9RVCHRBksrqln3+b1CyGYrIPjiafQ2Wtul1UblmKQn4mvb8rrIZWU7/hlbfz0XOF6m5tsT8kHUNcHC7SCPJSuWDyw3BLT3Bsr7K2eO1pXG3Q6oOiRaePE5Rbnax469Cs6Cuhl0vyO7OQZSIiAiIgIiICIiAiIgIiICIiAiIgIiIC1WM1Wns7Dvq635LPrJxTwOkO+wHcrm+Z0jnPdq4m5QBp5oU5gLqnmPa6mKm6gnVYlViFJStLqqqp4QNzI8NAWtZmrAJL+HjmGPt/LUtP6q4mt4CNlKx6eqgqG80E8Uo/oeHfkr/NqmLqq6g7qNUCCl97EAL484oY9iOIcRsRqKiR7fYKgwUzeb3Whp3HmV9ikXXzPx4yPVYXj0+YqKnfPhlUPEqOUXMLxYXt2KpF6nYOImSatxn8THKNuoebue0dl41URnwD4scjCNLEWsbrf5UzBU5cxeLEcPcLN+NttHDsVvs+OwqLE219BNHJRYwz2gxNPMYXWsR5aqeFefU9M40xlLTy33tut3DDLhdCyo8V0ckp0aDY2VvDJaJtVQU9RI5lIJg6WQDZt1ncQMZpcczNJJhjGtoomiKKw5eYDrZaGFlnGq3AcwQYtRyP8AaGvBcL/4gJ1BX21hlUauhp6gsLPFja/lPS4vZfJfDfIOJZoxylL4TFhcbg+aUm1wNgF9cUlOyngjhj+GNoaPQKVbM9Xuqm+iEpdZQtfdRygf9lUNEOyuhzODdHO+qggnckjzKkKRspogDuqwEACnSyog7LHldbZXJXaLElf5qUi7QvtXwn+sD8V2K4ihd/HQf9Rv5rt0hRERVBERAXP1sxnqXOHwA2C2uJz+DSmx95/uhaIBBUoQoipBRQpsgFQFKg2QLJqE6J0QERAgBT62UBLdVESqbqUKKpcbdVyOYM74Ng+LwYbVVkbKqTVzb/APPsuorS5tPI5gLnBpsPNfE9U/E8RxzEq2ou6s9pkEmurbO2WvISb69D4kcSsfGYXMwjEXU+HRlzWGE/4nmdFwVfnzNEvK79u4g0t2LZiCuwZgMGaskSy4bRMGKUri6R5lPM4NFzZq84raJz8L9rja08o1aNdlTp2GA8Ss10lFd2N1Ti0/HKA8H6r17hzxEx/E8I9uzDSUbqRjuXx4HcjvXk6rw3DsL9riwrCBy+1Vrw48o+EW7rqeJOKU+VYI8s4DIC9jf4mYbgkahTlsR9PYViVLilFHV0E8c9PJq17HBwP0WeF8w/ZyzLPRZidgL5XPo6oF0TCdGPGp+q+nI721UwZdJUvp5R7xMZ3F1vGuD2hzTcHUFc2tpg8hc2Rh2bYhBsUREBERAREQEREBERAREQEREBEVE8gihfI7Zoug02Nz884iB0ZqfVa+9kBc9znvN3ONyVD0GjzdmSgyzg81fiUvJG0e60C7nnoB5ryniXj+L4jlJuJYRjhp4JACYKZnI4A3uHPJ/Ky0H2np535hwKnc8ijEEkgaDo59wNu4Wg4UY3D+14sGxp7ZMMrGmHkdb3XHY6qrHCV801TFed75Hbl8ji4k+ZK12HyPZUOdCeQkHm5RuuyzpgP+zWcq/BpZmy0oIdDM7q0i4v6XXM02FziapJA8OMc3MNiE+jOy/PVsxiOSilnge0gnwJDHp3Nl7LhHGqChxKCkqaeofR25ZpZH8zmHuO4XkeDzR4ZhstfLC67jyscT8Q6rRyfvXySO+F1zqtK+7MOroMQpIamklbLBK0OY9uxBWWF5l9n81J4dUftLnFvO/wAEk/cvovTL6LFSzKk6q3LDHLG6OZjZI3CzmuFwR6KsFOig8uzTwVy3jM0s9EajCqiS9zTW5Ce/KV59W/Z2xiM/7vzFRzNGjRUQuZ+RK+k0torpr5pp/s9ZgdIPaMdwxjPvckT3Eei7jLHArAcLniqMUrKnFJ268rrMjv5tA1XrykfJNXaxaCipsPpmU1DTx08DBYMjFhZZIFtlN1BdZENFHVObTZAbqCd/JSovYboCgq2U2UAXVQCCQqXbKpWZncrUFmV+pAWI838lW96svOizVX6E2roLW/xG/mu5XBUT/wCOgsdfEb+a71aiUREVQRFRPIIoXvds0XQabF5PFqeQfCwW+axAnMXOLnbuNyl0UKJrdFKCJsioIhRQFBdYKl7rDXovPavPdPi2OVGBYBXRU9THdslZI0PZGewF9StSI9AfI1ly5wbbW5NlrnZhwhkxhkxWgbKPuGobzfS6+VOJc+KUuZ3w1mP4li9G06SOLo4yT0AabWXGYzLJIBy0lO2M/eDAT9TqVcH3VDWU84vBUQyj+iQO/JX2vB2XxLRl9JgTK6kMlLUsNmywPMZvv03XpWSs0Z/pcvyY/LV09dg0GroqnSRwH8rgPzUwfSQKq6aLksg51w3OWEsq8PfySjSWncRzxnsQurBBUEkXGq8K4l8OsQwzGKnMGVIHVENQeaqpG2JBO7mj9F7tsnpojUuPjbKWcxlfMUdU0ODBJ4VTTSAtJYT7129wLrVZwxuh/wBocWjyoX/sOaQPiEsdrEi7gPK919b5nyJlnM7T+2cHpZpT/wCMxgZIP/cNV51XfZ4y7JI52G4pidGL6McWytH11VidPnKjxKenrPag53jNFmuBsWnuFh1lXLVVslRVPc6WV13Peblx/VfR1P8AZzwwH+MzHXSs/lihbGfrquyytwhyjl2Vk0NC6tqWWIlrHeIQe4B0CU6ef/Z3yPWRT/7R4nA6BpZyU7HixN93WX0HGLBUxsDGhrWhrW6AAaBXQpogrMwd9qstP3mlYZ2VVBJy18RvbWxQdIiIiCIiAiIgIiICIiAiIgIiIC1WOzgNZAPve8fRbVxDQSdguVqpzUVT5DsTp6IIHRQ5LkHUGxRFcJxWyNBnXAPZmu8HEYCZKaa3wu6g+RXynmPB8VyzWvp8YppaaVjrMlIs19urSvuYi6wcUwqhxSHwcSpIKqI/clYHD8VUfDGI4rVYo9klVM6WRjeQOJvorcVXPGx7BIWte2xF9CF9XYhwSyPWSeI3DJ6Rx/8A207mN+ixIuA+S45GlzMRkt911SbFTxenzdjWZanE8JwvDZ2wNgoQWs8NuryepXccOOGOJ5mqY6jE4pKPCWkFzngtdIOw/wBV9C4Dw8ypgMjJMNwOkbMzaV7ed/1K6nlFuUCw7BJ0srDwrD6fCsOp6KijEdPAwMY0dgFm67oBYWCqAHkpqKd1KAapZBI03TfZLJ3QFQ+RrGlzjZrdSSqj3Xlf2hMwVWCZLbFROMc1fOKfnBtYWJP4BIjbZy4gnCcDqMQwXDziMcXumYvDYg69rX3PyC8Wr+N2bKlr7SUlELmwpog4/V91zmSKv2qogwSvqntoZrgBzjyh3Qla/OmWa3L+MOpaqP3ZAXwvA0e3uFuZq5G3Zxgzj7U0uxiURg/CIo9fwW/wjjjmemqmipdS4jTucAWTRCN7fRzdPqF5D4b/AB+UtNxvdZ9HFecXtprqiPsTAM5w1sVF+0ofYJapgdHd4cx3kHLrmuXwzimL1VU9jfaJuRvwt5tGnyX0xwGzbVZmytLFiDzJV0EghfId3i1wfopYudPUgbqoKG7KrZZEOKwKqS5sFkzSBrT1K1sjyXEqUiCbndW3uFjqqXP11KtTPsFFX6J96+A3++3816IvMKOS9ZCdbh4OnqvTxsFqJRERVBa3GpuWJkQOrzc+i2S52ul8ese4G7R7o+SC0BZTbqoKXQEVBOvdUmQDQkfVM0Xe4Uq014I8lUHX9EwVHVQpUoNHm+WpgyzislGxz6ltNIYmt3LuUr4kw2oqKFgkiL2uuDL3Lr6g+a+9JGhwId1XzLxi4bYlguI1mN4JC+rwqoeZZoWAF0LjuQOoWl4xvsEZS8TOGdVRwQg4zQMuxoIBdbUWXjeIUzarL/tOraimd4ckR0c1wNirvD3OlRk3MsWKUJ8SPlLJYL25geh81ztdVunxKrq2tLXTyvlIvtzOJt+KuldjVwGshwDC4mBhq3MafQnUldRxpzJBh0NFlPAqkx09LHy1LYxoTYWF15lg2P1mF4vFiMbY5KiJpbH4reYNv2C1lRVSVdZJLO8vnmeXE7lxJU0jrOGuOVmA5xw6roOZxllbDLGD/iNOmy+1mX66eS+buBHDismrqfH8bhkp4YDzU8TxYvP8xC+kmNsPNQqsIiKInooAUqCin5J6IigkKQoClBDjobLlMLx1tTxPqsEifcUlLHNIOznEfouqO4B7rxTg9XOxXjrnittdjOSAHtyuDbfgrB9JIiIgiIgIiICIiAiIgIiICIiDExZ/Jh8pBsSLfiuV8S3VdFmF4bQhvVzhZcnLJYIM51ZJycpIIG1wrYnHXda10u/dW3T2tqpo3LZgeqrD2nqtIyoJF7/VXBUeasMbnmCkHVaplVpvorrarrfRFbEG6LDbUhXG1DT1sgyQhVlsrSBYq4HgqCqwCFRcfJTcFBGykJpZLm+iCkjRcRxYyk7N2VJ6KnDfbYSJqYu/nHT5i4XdfNUkXKRHwxWR1GHVckNTG6mroHe9G4Wc0r0mTP8ARZjyeygzBSsdXUrC2OflFzYaa7he5ZwyHgWa2k4nRt9p5eVtTH7sjfn1XjmL/Z6xNkz3YHj1LJCSSI6tjmuHYXbe61FeOyVrJJWPfAG2HKeXr5rpMOxXA6fI1dE2MSY1UScrbsPNG3uCugdwLzpzhnJhZbf4xVEfO3Kt5hH2ecTkeHYxj1NAzcspWF7vqbBX1ceN0FNUVdVFTwRmWokPKxg1JK+s+DGT58p5XayuDRXVLvFmDenYfRbHJfDzAspxR+wU5mqmjWpn955/0XZNbbzUtPmRU1HFTYAKzK8WWUY1XJYWC15crtTJzHdYjnarKpe7W91i1Mmlrn5K5K8NWvqH3JtsoM7DferIP7x+a9TGwXlODkHEKcHrI3816stxKIiKox6+bwKV7x8VrD1XPMFlsMdmvNHCNgOYrAGyCHmwXMY7mqhoYasQ1VM6pgBvGZBe/ayzs3Yi7CcuYpXsF301NJK3zIaSF8fYRis0VX7bXjxpKiQzyucSQSTcq+LJroMy8QM1YlWVTMTxKsoYb/uoKU+G0jpruuGrMdxN83/EcQadNDUv/wBV6FxTwJ/g4fjVFHeCqaDZuwZbded4hh0tPV03O0FsgBFtbqrrpMPztmDC2NfS4vWNe61ryud+d7r3vI+eMSbl+OpzZJEDbmMgZyWadiV4Pk/L8+Ys101BSe82IeLKS3RjR3Wx4nZnE+Jz4XRP/g4AI7DYkDVLUfWeG4hTYjSxVNFMyaCQXa9huCswG6+afs045WR49V4LzF1BLEZWNcf8Nw7eRX0o3QaqJ4q9VDmgixALT0OoUndFBw+aOFuT8ySeLX4PFFUHUzUv7pxPnbdcTV/Z3wCTm9jxnFacdA/lkA/Be2Oexo99zWjzKNcHD3SCPJNNeGRfZzwcOBqMwYjIOoZGxl12mVOEeUstTMqKagdVVbdp6s+I4HyB0C9BslldXapEbQLNAAHQCwCqGilCoh0UFT6KEAJ0U2RFEUbqoIJCIoKgsTyeGyR5PwNLvoF4d9lf+Nx3M+IOB8SaouXdHXkcV7Bmiq9jy3i9SNDDSSvB8wwleX/ZDo3Q5Uqqt2pqa0m/oFR9GoiIgiIgIiICIiAiIgIiICIiDR5ofaKFltbly5OocunzTfnhvsGm31XJ1R1NtEvgxZJeUlY7qi33rdVbqpgL2NrdSvGeJvEuXDJn4dgjmuqmiz5SNGeikmmvYJsVp4XWlmYzzcd1VHicUlvAkY/QHRwK+M8RxzEq6UyVtbPI/wA3m30VinxStpiPZ6ypj115ZCFrIPtuOsufeP0V9lTsASF8q5W4pY1hEsbax/t9ONHNlPvW8ivdsn5tw/MtK2ailDZeUF8JOrSeiln8WO6bUG+hVYqTbdaoS3AIKr8Q231WYrbNqiLaq62qNr3Wl8Y2AJVXjWBF9U0xvm1h/msFdbWkdiufZUaaq42puE1MdEyqFjzD8VcbUNI3sucZUg6A3Kutqbac3yV6HRCRp+8CqgVoG1RHVXWVmm6pjdXCWC1TKxw15lfZWm2tlcTGcWhW/CPjB/NpaxCttqgd2qsTNQXwAqgNgBqrTZWnqr0E7Yn8xAceiiqZbt3WBVSWBsdVkVMxcXOduVq6mW5WaRZkdqVZNrKXOBurEjgBqVNaWqqS3p3WvkeebTr3VdTJcrHLrnU3spRtsFucSpba/vW/mF6yvJMENsSo7ajxWiw9QvW1rizREVmsl8Gllk/labeq0jn6yTxq2Z/S9h8tFT0ViM6DurwKDDxOkjrqKopZwHRTMcxwPUEWXyRnTBa/K2KS4ZitOW0jSW0s5b7j2HYX72X2GQDutXj2B4bj9A+jxakiqqd27ZG3t5jsmrLj5IwnPc2H5cxTBq6M1lPNSup6Uk6wk9QVyDsVrXshY+d7hELMv930XvuYfs60Usz5svY1JRg6iCoj8RoPkb3AXLT/AGfM1NeBFiWEStvq4lzfwSQvbhsm5yqcrQ44aSIPqcQgELZidY99R9Vy7XyyyW9+SZ523c4r27D/ALOmMyOBxPMFFAw7iCFzzbyuQvV8kcJ8tZVfHPFTGur2j/M1OpB7huwVOnMfZ/yDVYDSSYzi8ZjrKloEUTt2M7nzK9oaLBA21uw0UkKaepBUiyjYKUGNW0UFZCYqmNr2HWxVVLTx00QjibZoV9EBEupCBuoUqN0EoVA2TdBKIgQFKhSNEEhUuKqOytyHRQctxKqPZuHuZJSLgUMot6tI/Va37OGF/s3h1gTHiz5g6oPzW1z9RuxLJuLUTQS6oh8MW8yF0GTKNmHU2H0UQAZBAIwB5Ba+Hx1yIiiCIiAiIgIiICIiAiIgIiINBmoHlgPTUfkuOqxvddpmsH2WEgbP/RcZU9VL4OWzNMYMJrJWXuyNxNumi+Pq+qdVVc08ji573k6r7Ix6n9pw6phJID2Ob9QvjXEqZ9HXVNPKxzXxSObZwsd0434MRxBOii3UKQOqgk2sFoZEZDgtll/GazA8RZV0MjmSs3A2d5Fa2OJzWAkEBUWIcT5qj66yfj0OYcCgr6c25hyyN/lf1C39yRcm914FwCxN8WN1OHuJ8GVhkDb/AHhZe8tJt6LHLpVbjpfoqTJ5eSl3Y7K3IOiy1q7ckWvp3VXNbqrHiANN91SHa6nVVGQ2SzyU8c3vfQLGc4O2urZcOQm9ipqs81Wl+bVS2r5QNVzeK4tTYbC+aqnayJupuV5pjHF6GCoIw6mNQ0G13aCy1NS17oysA+8r7azWwNl84x8ZK7xA6WgjDezJNV1OXuLeHV0wirI5KaVw0vqPqllTXtsdWLWufQLIjqr21suTw/E4ayCOamkZIxw3a4FbOOo2seikqugbU+ayGT3C0UU4sDdZsMpcAraM+Z926FayaQ8xWTK/3Da610rzzW1ss0kVF+iwcQqoqWnmqJ3BsULC9xPYK7I4ct15pxuxw4XkuWGIkTVr/BHppf8ABSd1a53B+I1XjGapIRHGKMuswN3tfuvUYpPcub83VfM/DUg5iYAdgCPqvpKCQFjQNgNzutcsX2a3uXi44rSX28Vn5hexrxfLzj+1qIHX9+z/AO4L2hOLFFrMxOLcOIBtzPAWzWizW60FML2vJt30WkaqJzeYc2yvyujDv3R91a0yWCgy9yg2Qf1U8y1fjkaqttW4G3MmDYqTYhYTazvY+quNrGnQtHyVGSFICsCoYdLG6rEsfR1vVBd6IqGub0e0n1VV9NNVBJFwp6eSpuexS+iCpCoupBQEJS91F1FSiIgX0QWsigblBUVA806qUEqVClAdsrEpV1xViQi6otOAc0g6hbDBP8+z0K15/FZ+Cf8AEG/2lVHRoiKAiIgIiICIiAiIgIiICIiDU5nF8Mv2eFw9S0a+a77Hmh2FTX6WP4hcHUjUpfBqqkAmxAIXgnG/JD21T8cwqFzmkfxEY6ea9/k0KwayFs0T43tBa8WcDsQsT0fEx0Fwqo28wuBovb88cITUySVmXXNjkeSXU7zofReS4ngOKYM8x4lQVENtzyEt+q6aMRrTygEmw6J4QJVyOW7eRrHOJ7NN10uV8m4xj0rDT0ksUPNZ0srC0BUx1PA3DnNzBLVuY4tjjI5raC9l7ww6LSZQy5S5cwmOki9+T4pJDu5y3hsQLBY5dro1wJtqrb391J3vZUG4dpdZAm40BVBdrci3formrtFQQL90rSgkE+fZWalwY0kmwV9tuvVYde1zmOERJcb20VkR8+8UcflxPGJaNjiKeA20O5Xn7iQbXW6zY2SPMeIxvvfxSVp+XqVuMqG3uOyqYfe317qHWA81LBc3VHWZNzjX5brAY5HS0zj70T3aAeS+ksuY3T4xh0FXSSBzJGgnyPZfIZJDt16nwSxuWnxeTDC8mKdt42k6BwWbNV9ERv21WfTyW8z+S08Ml2A6ArPp3XOhWVjaud7lvJYE7rHYrLLvc81r6l1ndFm1YsVMvhsN/iXzz9oLEjJjGHYfe7YmGVw8zp+i91rJxz2ubei+Y+L05nz/AF4uS2INYFeCcmTwmh8bH+YjRthuvoWIAAEC3kvFOCtI4T1FToG9Lr2eOYm2twdVOdWOgy4/nxeiDL38ZnTzC9qXimUeU5hoW6n96LL2ta43YnIXM5wkImo2W0s53z0/1XTLkc4yH9oU7APhjLr+p/7LTMaSWRWDNyk6lUyu38lhTSalGsZnji+hUe0bG61rpOxVJlv5WU0xthODuR9VU2c9DotP4rr2upM5AFz1S6Y3IqOt1WKrz0WkE3XWyn2g9CpqY3zaq33tFWyrO4K55tQT1t6qttSQD0VlXHSNrndHFXW156m9+65oVeosbq6KogXJS1MdKK0E6gFXBVRn7v4rmm1XW5Cutqr9dU/RjomzxnqQVWHst8S55tVcb6K42qtYX1V2GN+D2c36oD/8utKKo+arbVaDUojcApfRaxlWQfiKuirJO6DOBVQOqw2zg9VdZO3qAgvgq/JC6ONr3EWdssTxWnYEKt0rnNAJuBsEVDzoVjvKuuKsklII0+azsEH+8Wn+krXgrYYGb4g30Kuo6RERQEREBERAREQEREBERAREQYuKt58OqB/QSvPamwK9IqWh9PK07FpH4LzmqB16JfBrZAArDxc36dFkTBWNNiViKtPboVYdAyQESsa8HcOF1mW0BVNidAFpGBHhlEx/NHR0wPUmMFZXIA0tAAB2A0AV2wsdlTtey0YsEdNrd+qqIsbDbyVwgdSNdlA1GpG2llm6sWSOg1VBFyskMcSA0EnsAoFPMXe7BMT/ANMqZVY4abWsgbZZvsVS46U01v7CpGF1zrctLLv1A2TKsYHJcHoVYnZbW2oW6OD19iW07jb8VS3AsTfq6k5fPnCuJXzZxly6+jxEYnC28Mv+JyjYrzM3X2pimTanEKOSnqadr45NCCRp9V4tmL7P+Zm1sj8DZSzUrjcCWoDSPKys6Zx4fykusstsNmA21XoVXwWz5SMLnYF4wGv7mZjv1XM4pgGM4Gf984RX0I1HNNC5rfrayq/mtC+O40C7HhVTySZyoeVps27r9NlzMbfaJ2xUw8WRx0azUr3DhZlObCYnV1dHyVb9GMO7QpqvS6Z/N90DyC2VMdRda+IWdp0FlnQGxAN1n6rZgjw+2i02JTiK5cfmtq4+5dcxmKewHYXupyGnqawumdqdT0K+fOIkbnZuxKVwI5pdAV7j4jXSucG2HclcBnTLNTXY1FVxtY+nkeOYg3I9U49epjbcNqY0WDtuOV7m3163XbwVDQbal34LmqRrKWKONpsWNA5QLLPp5wHNIJuNSCl7aeiZEHPmKhuNee/povbF43wnh9pxxspBcIWucXdjZeyK8ZkZ5ei4rN8gdi4aPuRgH812q4PNRH7cl78rfyWmWjnNgdVgPdcm+6yao9juVhPdc2Wa1q2TYEA6qnmId07qlxPN2VsvIF+ikVW5x5tFVznY6qwXaWKguIbe11UXy4X1NrKPFsNNVZbcnTf1UOI5tFnkMrxex1VHiO1vbzVrmB1Fkvy3/wDl1YMgS6AjZVNkN+qxS42AIQP6FKazTKC2wJBsqxN7uiwHO1Bb6KfE0sb6INiKggbq77Uea41HmtOZuZp0+auNkIA7pqtqKgjY2VxtTZafxHcl7deqqEx1uoN22p7K6ypuVo2T2F76BXGT9SVdHQMqb21/FX4577rnWVGu6yo5/Na1MdCyXRZLHXAJWlp5iTe62UDrojKebhWiVUTdUE7qhdbjLkZMs0h2ADQtOTYLpMCiMdA1xGryXINiiIiCIiAiIgIiICIiAitVNRHTx88hsOg6laqoxKSTSIeG3vfVBulQ6VjBdz2geZXPOmkefekcfUqgoN7LW04BaZL6dBdcfLhr3khr2ht9PRbNDomjTfsUkWdO0Hyao/2fhd8U0l+4C3SKK1DcApmn3pJna7F2iujBqMWBa71utl01Q3V0YDcIohe8Id01JVxmG0TDdtLGD3WXdSm0WBSUwFhTxD/2hViKNtrMaPQK4oUAADYAegRR18lPRA9SVPzUdEQT5IQgUFVEpuoS9lFVAnuqJ4Y6iJ0dRGyaM6FkjQ4H5FVhERxFfw9wCGaWuwrC6amrHXLvDYBzLTiMtkIeOVw0I7L09w0uuMzLSiDETK0e7MOb5qq1AAA2Hqr8O4srDTa4NldiJ5ib2A6LCsyZ9orjsuPxyUOktuLrpq9/LB+S4vEXDxHkAG+qnJZWuqZRE64bcdblYcswMXKLWOtlcrSC08uo8t1ri/3bC91mUC7S5I5lfgcZHBrdb6XWuLi93LuL6rJpyIyCHW6AK7ivduB1Ly0VdUcpsC2MOvoep/ReorkOFWFSYZlCmNQ3knqT47m9gQLD6ALr10njFFwGaSP2/UDryt/Jd+vPc06Zgqj5N/JVI0E7iSdbLCeepss2c3Op1WBMSSegWasi2dCDoVQXa22U6j1VBfY2JvdAc5pGvXRW/hHYd1WQ0DUlUXsDr+CsJQA8p7X0UX1t0UEkaBCLsNz026rNmtAIF79VSXHzt+CpJu8W2UudzCxNx2KqLgcDoNB5qkE7XuqI3EOv9FU4XuASD5J/pVTrixGqpe/e2llOug0sqH2a43IF9lLBU1wIU3O/RWyQCSdO91fjgnkaPBikffUWY46fRJxtVHiWNriykOIvfYnssyDBcSmFxRyAW0vYXWdBlfECAZGsjN76vVsp004cG3uLg6KQTqAb2XRsylUEfvKqFvo0lZEeUoQ201bI7+xoH5pOKbHORPPqeqyYn+S6OPLGHtN3PqX+r7D8FlR4FhzDzeC5x/qeSria0lI7UErdUxJAusmPDqKM+5TtHzKvtgibswAeSeGrHRUlZToR902ViVhYdVYIgjM0zIm7vNl2cbQxjWt2aLBaDL1PzzunI91gsPVdAiCIiAiIgIiICIiAoe7lY53YXUq1WHlpJz2Y4/gg5qWqkq3mSTS+zegCqbsrEWgFt7K+NQlVN06IUCgINU/JAkQRE6KhdE2QKYqNVJSyKgiEqD+KglB5qCpv0QAnVE6+SCU3QlR+SqJQqNkKKqT0UKVBOwXPZriDqVrz9x110JGi1WPxeLh8zf6SrBxI1d3VUZIOqtg2tb4r2VQFiRqpi4s4nJ+61JsuUrSHudtoulxTWmsCuVqy73jvdc+XdVqqsho07FauV/8ALpfTVZlWA25FyFr5XA30179FJCKADfQn6LrOGmA/7RZupaNwc6mi/f1FxpyA7fM2C5DUBxvYDXVfR/AvLn7Iyt+0aiPlrMRPia7tjHwj57/NbnEr0kAAAAWA0CIi2wLzvNR/3/Vd7N/+1eiLzjNJBx+sv05evkFKRopjvqsR9hffVZc4/lBWI8baFTxrVgus4b3Ct6l+liFd2JuQL9Cr0NBUzkGKBxHdWTVxglvva6qQO2y3sOWq+U3e2KJv9TtVsIMqta3+Iq7n/lttb6q4nTj5Lg3sokNwPe17Hqu/iy9h7OXnY+Ut6vd+izIqCiiIMdNECNjy6qZE15pDTSykcsby4gaNaSs6PA8RndaOjkDb25joPxXpDbMbZoDR5CyqLrdU6NcHBlTEZANIIvV11sI8oOcQZqtre4Yzf5rq7q1LMyJhdI4NaBqSdlYa0sWVaBjSJXySHveyyosBwqMWFI12t/f1N1yWa+KOC5fJjtPWz2vywsu0ertlwk3HCvkje6nwmniGvKHyucT22CuUyvdYqSki/wAOmhaf7VkA21AA9AvnCi4646Z+WXD6CS27QXNP6rf4Zx6og8R43hFRTP6up3iRv42Kfkx7je/moJ00Wky7mbC8wUjajCquOdhAdYH3m+o6LbudpupiJe8N3K5nMudMFy7Hz4nVhhOzWguJK5DjHxB/2XFHQUo5qypu4kfdaO65zF6Wj4hZLfJTSH26H3jGD8JAV6jUn2tpLxup5D/u/BJ5It/EmnEd/lYrApuPTZKp0D8BJcD9yp0P1avFKauNPRvil5S+JxaWkbrCy9I2ozADdrAbkXKsS4+m8L405bqJxDiQnw2Q/embdn/8gvRcNxSjxKBs1BVQ1MRAPNE8OH4L4wo8NqcfzIMOomiWR7tfId12mYJzw2xOlZl2ukZXsA8aO/NG8di1LIY+qQ+9rKp7Q8WsuJ4ZZ1p844E2pZZlXEeSePbld/ou2adFjwb7DomRUcbYyCLXJHUrJWrwmYAmI6E6jzW0VQREQEREBERAREQFYrzahqP+m78lfWNid/2fUW/kKDmo/NXlYiN7eivhFSoumylQQp2CWQIA2RDZAqGvVQVN1BQEOyoe8MFyQANyVwWbOKmW8uzuppqp1TWA28GBpdr5nYJiO/uNEuOi+esZ474i3mOH4bRwsFwBK50jneelgFrMN48Y/M+1TTYeW20DYnAn53Vxcr6YB81K8SwDjvQz1Yp8Zw6SndoBLG7mafla69ZwbGqHF6ds+HztmY4XsDqPkl4jaKRsqA5VKIlEGydVFPkgCKd0E3RQFIQT0WJiDOeneLbhZatVDbscPJB5w9vJI4HUhx/NRe+3TdXq4clXKCDfmP5qzza2bYI0wcSuWdLbarma4Euc1nS3VdTX/AebQbgrl6oXPNylxB27rH1NaSrBANxYDSy1Dyedw6enVbbESA8hl7nyutZI4AkkgaXutWLrd5Cy2/M2aqLDi0mnB8aocOkbSL/Xb5r62ijbFG2ONoaxoDWgbABeecE8rHAstivrGWxDEbSuuNWR/db9NfmvRVZMZt0REVQXmuaSDmCsFuo/IL0peZZp1zDWmx3A/AKVY08mo1WZh+EyVdnvPJH5DUqiji8apa07bkLrIGhrWhosBskhrHosJo6UDkh5nXvd+uqzhZo93RSqXn3boiJHAC5K53M+b8Jy5SGfE6hzGbANYXfkuQ4y5/dlSlpaSis6uqyeX+hg3cVqo8agzzkiph54/bI4ffBcNCBv+CvjUnW1k1vGak5ZXYdh76gNPuc0gaHefktHBxyrn1ngHB6ex2DZDf6rw52JOpvGhcQOVxFx11WtpMRDcSErnP5SdbdAtJ0+mqbjfh8VYKfFcNqKbmIAkY4PaPUbr0vA8xYbjlO2fDKqOdh7HZfIOXaM5nzdSUdO5rWOeC5z9NAu1zlmZmU8bhgwCRpnpAGua0+44+anU6WSV9OvfdeE8UuI81FnODCKV3LS0bmvqdLiQnXl+i9LyLmmDNWAQV8I5Xn3ZWH7ruoXzPxion0HErFA4uvUcszb9dLforIzPXouf3R5lylJi+HSxhzAC6NotYdl4kcUjbSO5iPE2Gq218Zw3Co2PdLDQVh3F7O8lq8UwEUFV4dS8Bro/EjLeoSdLWJgVcxmICSYgAXsXC+4XTZTw12Y82w00TeaMvu8jo0brlsKoYJRWSySECIe4ALlxXoDqKTIuUKfEoaox4viB91luV7Gf/ChrY5yxKhybmCB2UpyytibacC3K7yK964f5pizXlqlxCOwmI5ZYwfgcNwvi6aofU1L5Znl0jzcuJuSV7v9mB1QJ8ajaP4Q8jvIP/8AwkL3Gk+0dQz0+d6euc0+yzUzWMdbZw3C4zLWJVuDF1TA6RsTvdda9iCvq7PWUaLN+ByUFd7h+KOUC7mO7hfNmO5czDkhlVQYxRuqMMmPuVMTOZpF9LkfCUrU7jAx7LDoK2lq2SPkoMRbzRytb7of/L6rQUGEupa2vNRzMbSsDib2Oq9H4c4rQZjy7imSMQqA2adxqMMnLv8ADk35b+o2WqpsGrMQzBNhlV+5nmdHBOToGhvxn8EjNnbcZEmbkLJMub6uNslViDjFTMdvbv6LyrF8VqsXxeevrXc08zi466DyC6TitmWHGcahwzCXO/Y+GRiCANd7ryN3WXPZZy/imY8QjpMIpJZ5CdSGnlaO5OwUwx619maaf/arEmA/wzqYFw/qvp+q+m49l5/woyJDkvByx3K+vnIdO8Dr2C9BbtaylRcaS0gtNiNlvaOoFRED94aOC0LdVdpZzTVDX7MOj/TuoroERFUEREBERAREQFYxAXoagf8ALd+SvqzXf5Ko/wCm78kHLRbDtZXxsseH4G37LIbayCd91HVSiKJooQKApsiKgfxVt7rXVxWpRp6IjxLjZxCmwvEqbBMLkLJbiSpeD9z+X1K5zNNLFnnKv7RwWGCCegZzSRtbZ0mmvrsuM400M1BxMxfxgQ2p5JonHYttYgehCp4X5ublbMLJay8lBIPDmZvodLpWp45OZjn0fOxri8EhwtsQsXDufmc5zOcAG+trL1riJg+H4Bm5ldQujkwLGovGjLTdsbzuPnuvPmxMpoqiCn1lqJOSMDsTYLWs1s8m0FHVitrsTLfBp2ktD7+87oFGCZxrcFxyKtwyRzGxmxi5jyub6LfcURQ5cwLBct0HIa1sYmq5GjW5toV55TxOmmjjjF5JDytHcqa1xr7hyxi8eOYLR4jALR1EYeB2W4Gy5nIGGOwnKeGUb7B8cLeYDud10wSolEsltbqAgUogbqR5KFO5UEhUyfCVUFS/YoOCx1nh4pKBpfU/RYDidCAb9lt81t5K8Hq4WWocbkWvdSwYeI+9C3WxXPV4AsWn6ldFWgcnmuZxC7HHtvfupYrQVrru+K2p2Gy33C7K5zPmuGOpjvRUtpqjTRw+60+pH0BWgrQXOIa0kuPKLC5K+k+FuVxljLEMUzf46ptNUns4jRvyGn1W50Xp17QGtAaAANAApREZEREBeXZgk58wV+4tJbXyC9RXlON/8exPv45t+Cl8FWGkNnuAuigdoFy9C/8AeOFrW6roqSQOASLWe1USbFVNOikhEfL32jaOpp860tZKSaaanEcXZpBNx8157SQ1sdBNNTzSxwuu14jJFx5r67z7lDD834M+gxBtiPeilbvG7oV87VOWcfyRUS0uK0TqzCnHSeIFzHDzt8JstNS686xLDjDFHJEDJE8bjoey19DT81RJzsNmDXyXb1sTKqgr2YW1kmHcweGg3fE5aDLVBM7EZn1ULxSRjmmO2iumNpTwNwTLwqzMY62oPuNGhDe4K5Z0z5pjJIS95Ny5xuSttnXMj8wYw2oLWRU0TBFTxsHwtGg+a3eROHmN5unDoKZ1NQ3ANRKC0fIdVKmPUvszRT+yY04lxpXPZyjoHAa2XbcVOHVNnLD/ABYXNgxSEHwZbb+R8l1OUMt0eWcGgw+gaAyMe87q53Ulb22iSm97HyDi78bwTC35czPR8sLHXhmdpY92u7LX4zSPrsHpYI/Eqpv/AC0rXX0tq0juvsTEMNpMRgMNdSw1EZ+7KwOXIVvCvK9RI18FJNQyh3O19JM6MtPcW0Tpf1HzBk/DfAqRU1nJ7PTO8aVsnUDW1vULV5xzLV5oxyStqi1kXwRRt0DWjQAL6Un4EZYnme+Wtxktk+NvtIs710WywbgvknDHNe3C3VL27GpkL/w2S1HzJlTJ2LZnroosMpy+Mmz5joxnqV9b8PsoU2UMDjoqezpT70sltXuXR0VBS0MLYaKnip4W7MjaGhZVrKaVSG6K3UU8VRG6OeJksbhYteLgq/qiajgsW4UZQxKoFT+ym0dW13M2ejeYXNPccul1qZuDWDSTzTjFsaE8wIdL7Td1vWy9UH4qDrsmrteVYXwMybQvD5KesrLdJ5zy/QWuvQsIwbD8IgbBhlFBSwt0DY2ALZjS10soW6gCyrVKqCUSFLgHAg9VCkFBusLm8WlaHfEz3SstaPDZvBqgD8Mnun16LeKoIiICIiAiIgKioHNBI3u0j8FWof8AA70QchD8LdeiyBsFjxXsOqyG7aoJ2UJrfVSFFAidECCN1NkRUFS4XCqA80KiOC4mcP6LOmHhsoEVdCCYJxuD2PcL5kzlw8zLlueQ1lBLPTD4Z4GlzXfIahfaxAKtvia7cAqmvgebFquXDIcPnmcYYXXYx51b5AFWo6gxTRvbKRI1wc0g3IPRfcdflHAMQfz1mDYfM/8AmfA2/wCSsQZGyxTuDoMAwxjgbginbcJrXT4+pMGzHm7FHTQUVbWzyOHPK9hAAPmV7vwv4OtwiphxPMJZNVt1jiGrYzffzK9opqOCmYGU8McTRsGNACvgWTU3+KI2coAGwVwbIUCIlLp5KbIqFKjZSoI6qQVF1I3QVd1B2RCNFRyOcmG8Lxbcg3XONdY6DVdbm9n8G15+64bLkgbkWGigt1Yuy/QarlsRsCdrbWsupqheM6LmqynfVVDIaZpdO9wY1vck2ACYOh4TZZOMZj9tqml1FQESai4dJ91vy3+i9+WkydgbMv4BTULbGUDmlePvPOpP6fJbtVBERAREQF5RjRH7fxPe/jm34L1deUY7YZhxItvfxjfVBj0hs86krd4fLbQnqtFT/E43WzpHWeL7KNOhj1CurFp3XaFlDQBGUFoO6tSRtcwsc1rmEagi4KvFQVRzFZkfLtXLJK/CaaOSQWe+BvhucPMhaCTg9lGWR7301aQ/4ozVv5D8rr0U9kCau1xeCcMsoYJIJaDBKYSA35pAZCPrsuwZEyNrWxsa1g0DQLAK7ZTZNFPKllNkQQBoiqCgoFk8rJsigAIQl0QT0UfJSoQSPxTonXql0BPRR1Qb6oJKj1ToiCoaqoKgFVAqCXC47Lf0c3j07H9bWPqtBus/CJuWV0ROjhceq1EbZERAREQEREBHagoiDkGjlJA6EhXmq0/SeUdnn81dZsiqlCnqoUEoo7Igkol1N0EeaWuiIFvJLaaInVEANFBFypKIqLaopSyBohTZEDqpUXUoiLKQEKjqiltVIQJ5hBUNfJCoClUaTM0Ydhst9QBdcUGlzRbou/xlnPQzNte7Tv6Lz03AtdSi3Uu5WHcFdJwvy+KnE34tUMvHTktivs556/L9VqMMwupxaq9mo4+ZxFy5w0YO5K9hwbD48Lwyno4fhiaAT/Mep+ZVRmoiICIiAiIgLy/MsAp8wVwLuYSP5z5XA0XqC4DP8L48Wgn5LRSRBvMOrgTe/wAiFYOchs1xvss6B93Dotc0Ei4WVBzXUadDRyA9VsGm4Wlon2W3idpZRF1ERAKgXTRL6oJUJdLoJRRcpuNUE9bJZEVBLKDoUOiglAqSdblC4dUE/RFTzBQXaaIKyVBWHV1fs7Wuc3c2srbauV5Dms9y+xGoRcrYdEJ0WPJO1jSXEDRcDnHijg+XXOiu6qqLaRs0+quJm+PRebsoDh1K8DqONdcYzIzD4I27gXLtOxK1uH8csZqKp0RoaflvoPJa/JlfSAcNlUCF4lQcbYqaaOPH8NdTsd/4sMnMPUttovT8v5nwrHoBLhlZHNoCWh3vNv3CzeJjoAq2vMb2vb8TTdWWuurl7hQdHG8SRte3Yi6qWvweS8Lozuw6ehWwVQREQEREBERByUgtUzA785/NXGbKKwctdUf3lGFBVqpTqoUUspUKVQtqilQTqgdURFA3QINCh3sgnzUHUJ6ogKeihEC2ihSp6oCInkiChSERTcIiDZUSp6KFOyDGq2c8Lm2JJFgFpcLyRV1Ly+vkFNETo1urz+gW+n+EkdNV08Tg+JjhsQCiMTCcMpcKpRBRx8rd3OOrnHuSs1EQEREBERAREQFq8y4ezEcHqInmzmtL2O/lcNVtFarBekmH9DvyQeRU48SNh/mF99lnRtAasekBbG3uBbRZI1Uqsqndym620DrtBWlYSLLZ0j76JKNi1T0VLCqroGighDoPJUOdZBUovZaPH8y4bgjL11QA86NjaLucewC8pxXjZI+sdBg2FXaHFpkqnFp0/pC1i5XuIcOinm0XzZinGPMtDZ0hoyHm7WCE2b87raYNxkxuSgNXXUNDLCNQGFzC79FfylmPoAEFTdeW5W4xZfxhzYatzqCqtq2Q3b8nL0ijq4qqFs1PI2WJwuHNNwVMRk3srE1RHCwukcGgb3VUr+Vt14bnXiRyZ2OEsIFFAeWV1vicfPyTGuMtdjmPivl7B/FYyc1c7HcvJDrr6rh8W4117omuwyihiI1d4x5tFyPFmhw8OhxLBxeJ4/euaNA4rziavYKflLrutrYKxbk8ex4fxzxqWYRyYfTSC+tiQV2GA8acNqqxlPilJJRucbB9+ZvztsvmPCJ+WoLuctAHa66nJmDTZozNFSRkeGLvcT2Ctn1np9hUNdSYlTtmpZY5ozqCNVkSEDsF8649nBmTsx0kWBSARQkNqYy73Xjrp0K9xwTF6fHsGp6+hfzQzsvodu4WZEryXiPxQfS5tdhFA60NMQJn9Ce3yWv4hZew7Hcpw47hIMtWxnNK++u3YLynNdPJBm7Go5nXmFS8m/Yk2/BZ2CZkxXCMMqqWlk5aeqHI7mF7DyS343v8YlHMwUzo53AEDqba2Wrw6QOxMNZIGakXBWNiNNOyazy73xztLtisTDqd753FuvJuVYzXTR0tRjGOUtFSDxXSODQDqvTMcqsOyjhNKKaN9JjVPYl0brF57HyXJ5JZJgmHVOY6geG5mlM2VptIe4K5HGMbq8exCSrrX3e/UDspVlx9Y8Kc9Mzjg3PK1sVfCbTRA/Q/NegsN+q+TPs9VFRBxCijiLiyeF7ZddAALg/VfWER0UqX3pnUEvhVTD0d7pW8XM3tquhpZfGgY/uNURdREQEREBERBy2If8RqB/WqWqvFBy4jN5kH8FaYeiC6CpHoqQVN0E2RQSl0EoN1F1IRQoo5gnMoibWKnrqqS5A5VVQS6oLhfdRzDqURcKXVvnHdQXhMFy9jZAVa8Qd08UXQXrqCeyseKAnjjyQZBQlYxmFlHtGltEGVdAVje0ddFAqEGUSrkLQ91nODR3KwjPfqglPdBfnIHMNxqt9hbw/D4CP5QPpouaLrg910GBv5sOYP5SW/iis9EREEREBERAREQFbqf8vL/afyVxW6n/Ly/wBp/JB5Sz4rAaq+0nqsWNwMpOyyh0spaq8Csmmfyu7LEaTqrjSQNN0wb2N126FXRssKkk5mjVZjdlRJ0Flyuf8AMkeWMu1OISWJYLMbf4ndAupfruvGvtK0082SY5oL8lPUNfJY293a5VhO6x+FGY6DM1HiUGMsjlxN/NKznOvU2BXkueRRUWZPbsMaWUs45nMJ2d978VzGGV9XRzCagmdHKNQ5h1WfJSS4nTv5nl05JeAdyTumtW/WkxzEhWStIFrLPpMV5cFdC4WPQjstVXYfIyLxBGbNPK51uq3OF5dqa2vw/D6dhfUVXQfdHcqsOy4aZRdi0b8Sr2tbQRn4id10+C8QqfLudDQUr2/sN7g1zb/4ZPUFchnHGKvK9G/LFHVsMbABM6M7nqF58H87nEk7d0jUfdrJ2VFO2WJ7XRvbzNcDcEHqvjTNVNUx5zxillDhKKqR3vHcFxIP0X1DwmmnqMgYO6pB8QQ2N+wOi5jjDw3mx97MZwTlZiULT4kYFvGHT5q1OPuPApHVLI/2fiBkbEQXNBvbbQ+a5mtgdC9zbH5r0dsMdTHJh+ORzUdcwWjL22IcOnouUzjh1VQOjFbAWOc0FjwNHjuFmLZjQ4dFLySytZzAWXfYbXMytl573wSRYzOeaN7rtLWHsVyeUZ4aTE4qivY51LE4Pey3xW1sr+cMxT5nx6SuqGiOO3JFGBYMYNgrUa6aplqap80zi+R5u4k7lfTf2cnPlyRLG7/DZUObH5D/APN1875QyxiWacWjpMNgkcOYc8vKeRg6klfY+R8tw5YwClw6EX5Bd7u7juVCvNOM/DWXGJjjWCRN9tay00QGsgHUea8nwiOkrsMmw7EGvpq6P4C8ctrbg3X2JyDey5TM+QcCzEC6towycG7ZoTyPB+W/zQl/r5OxoTRUrKepYfEiJ5HgaELXYW6PllfchzrNkYBrbqV9C4hwdqwx0dFjEcsY1a2qgufqCuXm4M5n/iY4HYTC2fR0rXv0HkLfqnSvPOIOcP24KPD8NYYcLo4wxjB951tSVyVNHLNKyOBhfK82a0C5JXuuC/Z5q+dhxXGomNB1FPESSO1yV6pk7hnl3K5ElHRiWq/9eb3nfLoFEcrwIyHUZeozimLRhmIVDbNZ1Yzt6r2VmjVbYywV5vpooKhsFs8Hl+OI/wBwWtV2mk8GpjdfQGx9FR0CIiIIiICIiDmMa0xOT0H5LGjfyuuFk46LYlIT1aPyWvc62yoyjLzOufwTxW201WA6W3VUmU99EGwMwvoFT49tlr/Ft1UeL5orPM5v5J4+mi1/i6KDL2UGeZ7i91T4xtusHxbaKPF1VRn+Pv2VJn130WCZel1T4mvkg2HjqDN9FgOlJ7KkS6IM/wAZR41tOiwfFKjnOtiis/xlSZVgl/QEqPE8zdBmmbRUmfzWE59r6q2ZRfe/kqjYGfzUePodQtBiGN0VBHzVlXBCP63gLnpOJGWQ4N/a0PnbWyflXoHjCw1UmbXdcNR57y/VvLIcThd01Nl0MNfDPG18ErZGnYtN0wbps3Yq82TRamOW5ABWSyS+6g2Qdpquiy84GhNujyuWY64XR5XN6af+/wDRQrdIiIgiIgIiICIiArdT/l5f7T+SuK3U/wCWl/sP5IPIGv8A3hv3WYwk22F1rXP5Zje29lmQPuLkpZ2rNbZXARdWGEk7qp7g0XJ9UGwon2Ngd1tI3XC5rDq2Gpu6nkbIGmzuU3sV0EDrt7qjJtcarW45hlPi2Hz0VZG2SCZpY5pF1sgjgCpqPkbNWScWyBjjp2Uxq8ILjyTcl2tb2d2Wso8SpxWCopTEyfnEjGAXF+y+w6qliqYnRzxtkjcLFrxcFedZh4N5VxWZ09PTSYfUG556Z3KAf7dlWpZ9fPeO+2zOncacR088wedLAHqurgqqbKOWZ8wzyc2L1JMGHx3+Fuxd6Lr8W4NY5UUTaGmzQx1EyQysbNTXde3cELVx/Z/rql0X7SzG2VkegAgJ5R5XKup08GqquatqpZ6l/PLK4uc49SV2vDPIOI5txJn7l0VBG4GSR4sCOwXuuXuB2WsLf4tWJ8Qmve8ps0fIL06hoKeigbBSwshiaNGsFgpabFvCcPiw7D4aSmbyQxNDWgLNLbhVgaKoBRHP5jyrhGYoPCxWiilbe4dazgfULjcd4UUmIYf7LS4hLC1oswysEpb2Av0XqNtVBATR8+//AE/VbnBkmZ7wXu5rKYA/LVbvAuAOW6KSOTEKisr3jcPcGtPyC9nspAFk1davBcEoMFpG0+GUsVNC3oxoC2bWBSpvZRCyi3opUbFBBaE5Qeim4G6jnHdUA0KbAK34re6pdMPJBeAUrG9o7EWVLpr9blRWdHyk2c6w7hHlvOeQkgdVgiXpdXWPuqOnoZPEpYz1tYq+tXgcvM2SO+x5hqtoiCIiAiIg5nMele3zYFqHuW3zMf8AeEY/5f6laWU2VFp7+6tmTTdUyHVWydwoqvxFBf53VrmsoJ0VVdLjbRU81lbBIJUc2ndEXefrqnOrRKA7BQXQ7zUF+tlb5tSbqCToUF3m6KQbDyVq+qB1kFYdqo5tFTfQoCLdlRU13dUk91F77FUPJsVCqZ5QwEm2mq8e4l8UGYVJJQ4O7nqho6QHRi6ninjz8Cy1UzQv5Zne4027r5RmkfLI50ry57iXFx6lbnSRsMTxquxScy11VLO8m453XAWK21j09FYaNOZUOldf0Wf1b6L4kcxwsXADzXSZYzni+AVTZaKskLBvE88zSOy5hjuduqljCNRqrFfXuQs3U2ZcOZUQvDZQB4jL6grson81v9V8ucEMRno82xwXJhqW8pH4r6cp3EgE21SjaxG4XUZVN6ef+8fkuUhPugdl0uU3G9SzpofzWR0KIiIIiICIiAiIgK3U/wCXl/tP5K4rdT/lpf7D+SDxOY8sh73Kyqd4A1WkxLEqakr2QzyNY+RxawO6lbSneS066gE6lVWbSV0E1RJAyVpmYA4svrZXMWm8DCqye9iyJzvoF84Ueb6ih4ryVbp3Gn9q9nkbfQtvZfQ+ZQHZbxPlFw6led+hbohXgvB3N81JmvlrJiYK57gQ47OJ0K+pKV1tN/mvhPC6l9JVQVEZLXRPa8W8jey+2Mt14xHCqOraRaeJr7DpcKHLvt0TDeyrViAgkAmwV7rYaoiT5qnl0U3AQOHdQRyqQLIXAdVHiN7qiqwU+itmVotZUGZoQX/RLrGdUKj2k7koMzzUEgdlhGpJ0urRqD3JRWyLgOoVBkAWuM+ioM5tvqojZeM3oqTPr0WrdNpodVSZtU1WzdUH+ZW3VG+q1zpjsqfE10QZ5mO91Q6e46rBMhKp8Qnc6J2MwznuqTNbqsQv81HNokGZ4179E8XzWFfuqgdipaYzhJ3KyIpL2WuY653WVAdtkHRZf1qnn+j9Vvlo8uN/eTO7ABbxaQREQEREHM5pbatgd3YR+P8A3WjlNgt/mwfv6U+Tv0XPTH3SqMd51VlxN1ccrZNioqm9jshIsNVSTZTe4QRfshS1hdNLIJF+yp5rH/RBe+h1Q2CBudAlzZCbdEBtfRAG/km/WykjTsot3JRDT5pp1UdN1IsdUVBPKDZQ838lU+xKpcAdbXKqPMOOlBJWZOmkawu8J4ebdAvmcx2AO6+1cYoo66imppmh0UreVwIuvmDP2SavLdW+RrTLROJLXsb8IJ2KWji3Os0tAtcLHLfdvf5K+SCLg3VssNjomCmM26rJiNzqFYa33dVv8rZdxDMNa2noIHuH3pLe60IO34J4VJW5pZUgWhgaXF3nZfS1KLNbfUgLkciZTpssYTHTxWfO4Ayydz2XXxi1kVnQkrpcpf4tUPJv6rmIV0eU3fxU47sB/FRHToiICIiAiIgIiICt1P8Al5f7T+SuKiYXhkHdpQfFPH2sfBmHDGx3byczwQexXpuS8YZjWW6OuZ8ToyyS2vvDReXfaOi5MYwqZp91zXtP1Wx+z/iYmw3EcPcTeFwe3Xut0eRY657MxYm4Eh4qHn530X1blfEP29w2palxDpJaPw3ne7g2xXyxm+H2bNuLQu+JtQ669++ztXe15IqaNxv7LUlvycs4vx876xyyMeLOY4tI9Cvq3glibsRyFROeQXwvdC63kV8wZqpRRZqxanbcBlU7pZe6/ZtrfEwLE6W1vBmDhr3H/ZRbXuTH7WOiqExB0Kxmu0uqXvsRYojJdMSqfFI2Oiw3S+atulNtERnGewVBn81gOl03Vh1Ry32t3KK2ZqPNUGfXdaCfGaOIjxKynYf6pAFTFjdFM0mKrp3/ANsoKv5prfmoJt0VJmK14nDhuNfNVh/mVOxlmU33VPiO7mxWOXai2qm97KWqvl5O6pL7hW7qObSwQXL3IPQJe6tXTXuguElLqm5+igaq4iSfLRCdD3UD1UE3KKkk2UC5UhTbS6hUag2/EqvdUtt1UgdlKK473CzIN9liN0Ky4N7oOpy2CGTnoSLfit0tVlwfwkh/r/RbVaZEREBERBzmbQfFpHdPeB/Bc/Nay6PN2kNKbX/eEfgubkHfZEYpGpurTr32V2RWjtujSi1wQdlA0UnYlR+SCbb21Tp5qEBQDo3uhsUG9kLbeqCbadFTewPXzQ+qhxAvfbuiJvYIdirTngNHT1WHV4nS0bC6pqYYW23e8BUbEHXXZDv8ui5iTN+Bse1rsWpCSdhINFn0OPYdWgGjrqeUu2DHglXLRt7oTorTJAdRuq73OhCmCktJ3/FYtdQU9XA+KoiZKxwsWuFws2wsLlPJQeW5g4Q4FiUhkpBJQyEa+DsT6FaBvA6Elx/a8pGmnIF7hyiygt0216oPJcE4LYLSPa+tnqKpzTchxsD8gvScJwijwmnbBh9NHCwNt7rRqtkBrtr5KWi24FuiCGNs0K/H5q2NtLqtgRYyoN91v8qf8Tk/6R/MLn4jZb3KrgMVcOpiP5hErr0REBERAREQEREBCLgjuiIPjv7TdE6OlpZPCt4dU9l77ari+A9Z4Gb5qc7VEBFvML277UeECTBqtzW6kCpbYdRo7/55r5x4X1Rps7YXJzcoe8sPmCFvBs+MFK2mz3UOaOVs7BJtZd39merLa7G6UkBpjZINexWk460AE9BiTAdzE930Vz7ONRbN9fDp+8pDY+hCyvxp+NdB7DxFrXBto52NmFhuSF2/2aKg+PjcXdsbhbyuqPtGYQ6WnwvF4z70bvAk06dFV9m6AR1mLvuQTGwW76lQ+PoBps35KzI5XL2YseU6qpFD36LGlm5QXHYblVyPAB1XjXGbPzsKjfhGFvHtUgs94PwCys7VuM7cVMNwJ8lNSH2qrtYho0afNeLY9xDzBi0jwa2SGF2zIjZcg6aSWQmR5e46kk6lUmRrb7XTc8GTNWVMrnPkmkc53UuJSCvqICHRSyNPk8hYjJQTruqvDBfcKaa9AydxKxbB6iNtXM6ppQbOa43IHqV9GZXx6kx/Doauid7kgvYnUL43YyxXsXAjF5I8Wnw57z4T4+ca7JSvfwddFUBZW4iSNSSrp0WcAC6n5ad1ANwL7qq4t2VwRbugBug6FNSgG906XUjQFL9Ugi1/+6dNUOgQnyQT0T81F9Qpd6EKABy+aqGypGh1GiqbslFbQL2HVZcB1AWIwarMg6KaOxwAWw9p6lxWxWFgzeTDovMXWatIIiICIiDns5f5ak1/8b/+pXOy7bLqc2D/AHY138sjVyz7cosqMR+6tOb0V6Qa3Vl2g1UVQ5NxpsgCdSBsqiPOykaIdlAOp0OigHfXZL3FlF9FB1HoqIcbA+SwcRroaOmkmqHtZFGCS4m1lkzP5BrZeBcc80zuxBuDwSWiALpLHfyVk+hnri9USSvo8vAxxg8rpzYk+i8sxDGMQxOYvrKyeZx35naLVkknQK4HCJuouSlordzE36q5T1tRSyB9PM+J4NwWussR05O2iqAD232KSj1DJHFPEsNqI6fEne1UjiAXE++35r6CwbF6XFqKKqo5WvikFxbovi6NrgRa+i9n4D426Ovmw2Yuc1zOZg81rd9X19ARuB2UEi2llbj1aCNFcJFvwWaiRspOoVIJ7qQexWQ0Dr3QHUX/AAU7FQdkEjRVsOvkqBsFUOpRWTH+C22Wn8uNxNH3mO/JadjrDRbHLbv/ANQU2utnfkoV3yIiqCIiAiIgIiICIiDznjhhXt+VvEABLSYjcX0eLfmAviLLzH4bnGliNhJBUhpFttV+h+aaD9p5er6QfE+J3Jrb3gLj8QF8R4vgng52o6kscWSyBziP5gtSju+JeEHFsrVbGlzpY/3rba7Ljvs9xOZm6RwFuSndzH9F6yS17XDdrxZwPW6oydlijwTEKmqpWm9RuCb2WYRvs0YLT5hwKqw6qB5ZWnlcN2u6FafhZlGTK1LUsqZGyzSn4xtyjZdiBcCwAV2AWOiLvWM4izFiy2sVkk+5ZY8g8lUaTMFYaHDauoNgYonP18gvjrMOIS4ni9VWTOLnyvJ3vYL64zvCZcu4i1pN3QPA9bL5AmhcyQtfuDYq3wYrBYElWHg3usp6sEDmN1MFpp1WRE83VghVNQZ7HbL1PgPQPnzFPVubdkLOUed15fhdJPXVUdNSxl8rzYAL6o4b5Wjy1gsbHEuqpmh8nkbbKUdlGLAAA/NXR1vqoYANOyqIHVFQ1VKCOijpooKiNgotYHuoBI9FN7hUS3T1UHRLm/dRZVE777qD5KRoQoufRTVT5qoG6gaBRogm99bqpuioHpZVAG6C402WbTjY9VhMGuizKcWIUHc4Y0toIAd+QLJVqk/ysP8AYPyV1VBERAREQajNTC7BpSPuua78VyW7BZdnmJpdgtUBvy/qFxY+AEDRUYzjrZWSTc32V95Gqsu/NRYoJ8lGoHmh0UmxaLIVAu7ZLW3KkHsSqdeqIAXRx0Q3AIVLibbfNUWaja4F18pcVo5G57xES3JLuYHyK+r5RzDpqvI+MGSJcWh/alAB7TA332/ztQfPpaGhY8x5j6LLqY3RyOjkaWvabEHQgrEe3VBa6q6w231VAGqraPokGVGb27L1TgZh8kuYJKy1o4WW5r9V5/lnA63Ha2OnoYXvudX8vuj5r6eyFliHLGCtpWHmmdZ0j7blU8dS2/Q3VQaRugsALblTckEH8FBJNhsVItr5qL9yFIN0VOl+yXCi2unzQ2AUFQNlI1F1bJt0J81W020uUF4O8llZfmDcx0V9OYlv1BWDc28lcwYg5jw6/wD6ot+KFepIiIgiIgIiICIiAiIgL54zzg7cLzfWwmMeG53jROPZ2u/rcL6HXm/GTC2yUVJijW+/C7wpCB907fj+asHm5jfJEAxx6XsugoPgbpY+q0lNoLC976rd0AtuB5KEbiPVg/NX4fi02WPHqNFkwd0GQ7QfJYzybdllv+Ed1ivFyqsYVXGJo3MkbzNIsQvnLipkWqwitlxChi8TD5CXHlGrDfay+lXNusaenbNGWvaHMO4cLgoj4kdYn00KsuZqvqrHeGGXMWcXS0RheTfmhPKtEzgll5sgc6WteNuXxOiaPm57HaaH5Locr5PxfMMvJQUz+XrI8WaF9K4Lw3y3hRBhoWyPGxmHNZdXSUcEEYbDEyNg6MbYIOF4ccO6LLUbZp2tnxA/E9w0HovRAwHVQG+QVYvY/kgdfNApsTpsE2ChoXaqkm6qtdRY3BUDqp6aa+iixCqB2SKgdFLj3UOsbAJfTVUN9AlrJc20COQCg2Q7WIQd1BIvfU7qrXvooG1+qlp1VWLjNws6l1Iv3WEzotjh7OeeNp2c4BT6ld2wWY0DoFKIqgiIgIiIMTFgDhdXfbwnfkuDguYGk6my9Cq4xLSzRnZzCPwXnVMT4LQbG3UK/BTJ1usdxsVfk0Kx3k7rJFJ7dVBAAUOPVW3SWAPTqtC6DZU3usGpxGmpm8008Uf9zwFhNzFhLpOQYjS38pBomUbvm32spO231WFBWQzsvBNG9vdrgVlB1t/qgrO2ytSsDmkEXBVbTvbVQR0toqODzZw3wTMAc+WEwT9JIdDfzXmeJ8EsSje79m18Ukd7NEosbd9F9EHUDY69VQGC22qD5uj4K5gebSVNHH3dckLqMC4IU0L2vxiudMR9yMWBXtRaNTvdVcot3U8GmwTAKDBqZsGH00cMY0Nhqfmts1osbBV9FNldFIA+akWuhFiLKQNfMKBb3SL6qQFSdzYqS4huqihv12Uc2ijmvupFr3+iCWnuFPNuoJ1J2KAgoKwdNVVgwvmLDtbETBWiS4C17LKy3EZcy0Ads1xePkCqleooiKAiIgIiICIiAiIgLAx7DmYtg9XQyj3Zoy30PQ/Wyz0QfOsQEUro5G8sjHFjgTc3Bt+i3FEfe0CzuIOHDDs1Sva0CKsb47Tb7w0cP1+awKPTlve6tRuYtllwD3gLb7rDp9gCs2H4tFGl+TRqx3676BZL+5WM/UpRbKpN+ir01uqCCTopopPchU3BbcXKukaKALC3RUUuFraKLG1gq+XW/wA1B203QQNlU3XW+gQ7KVNFJ30Ug73VVha6g7Kg29iRol7KNtlLSeyGFxdCOwunL9E2CIG1tdFAtulzrdTpbf8ABACpGum5VVrDdQTYoqbW30UAi+6guJ0tdRfUoiobaK4rYPdXOm6KuM3W2wlpdWQAb84Wqj7rdYCL4jBa/wAX6FB2SIiIIiICIiCHC7SPJea04LQ9jrczXWOq9LXnMoDa2pA/9R35qxFiUarHl3WRL1WDO4gE7AJFa3G8Vp8KoJaqrkDYYgST38l4DnLi1iFfI+HBR7PACW8/V2qu8csyzVOJ/smGQiCOzn2NrnsvKGaya7Ba8GdV4nXYhK6SrqppXO35nFYwLgfdc4DyKpJAB6FUeJ5qaNlh+M12HPDqarnjIN/deRdeoZD4uVbKqOkx8+LTH3RLexb6rx1wEjN1EbSwm5uCro+2aGriq4GS072vjeLtcOqyjcW2K8d4FY5UVOHVFBKb+AQWk/yr15jrgFSmLoFweyjUHXZL9AdFI2U1UdFOlj3TW2uygaIiCdEJGifd202UaDcKCde+nmgOtwNVDlF7C6oq/NUl1jvdQXXbpv2QdwEVNwHdfkpHoVbJPNqqgfoERPMOuykHTRUX0Ug9evkmCu+i2eTYy/MsLgP8Nj3H0tb9VqCd+63/AA/je7HKiS37tkHKT5lw/wBCor0FEREEREBERAREQEREBERBx3E/DDWYG2riaDNRv572+4dHfofkvOqADR9t9ySvcqqBlTTSwSjmjkaWOHcELxA0z6KvqaR9+eCQs9QDorEbiLos6nOuq19OCQDothAjS686Ky4XV+SwCsHzUFsjVRYhS7RQCd1MEG6dPNDdDtskD1UW1SxA7qegCojlQA2HVSd9PmpN7IKfJTba26noLIoiBfdBqdTqpHmVDraefcqqWN7XUOJtbp5Ie/UpdRE9NdVA1OmyglW3SBt7kBWQXHEd1b5wDuVwGdeJuE5dBgjkFTWajw2a29SvG8f4r5hxQFtPMKKK+0QF7eq1+f6r6gfOxpHM4C/cqWStkF2EEeRXxfPmDF5n3mxGqeOxkKycOzZjdA4GlxKoZ5c9wmQfZIdtqrzb3BXiHDvir7dUx0OO8rHuADZ26AnzXtVNI17AWkEEaELNmDNi3G3ddFllnNXcw2a0krnYtxay6rKjbumedwA1EdEiIgIiICIiAvPsSa2PGKtjRb94Sbea9BXBY/G6LHajmv75Dh5hWDXy6X7rAqW+6fRZ8nXcLGmaCO6D5V4vUTqfN88jwOWYBzdFxBFgvqLiRkyLM1BZgYysj1ZJax9F815gwauwSrfT4hE6N4Js62jvRXRp5XkO8lYJuVde3mKo5LFQXIXWKzIeVxHPssNrCN13ORci4lmGeOTwXRUgN3SPFrjyVHoPAWhlEdbXFpbE6zGnuvZo9BfotbgOFQYTh8NJSsDYoxa4G57rasABv0Siu9jpdG3A2UXA0CEgdbrIq5jy6G/VQToqSQPRUlxt5Kqr+7YqnTttqoa73dVHNomIrvpuqS6+ioc4A/ooOtyNkFZOltNVGwHKfqoJ0FlB6gIKtdDupBBGosrJcR31S466KivmHzCkEHdWiQbqGvFrA+QCC6XDl3su+yDSeDhDqhw96oeXAn+UaD9VpMt5Ymq3snxKMxU41EbtHP8AXsF6AxjY2NYxoa1osABYALIlERAREQEREBERAREQEREBebcRaD2fG6esaD4dSzlcRsHN/wBR+S9JWkzlQe34FOGi8kX71mnUbj6XVlHnlPY2A1PdbKmOvktXSWc1p7raU52Si7Ltqsd/dX5Bp3Vhw01Qi2RqToovdVG43VJGwUUJt3Q7jqgFxrup2b53QoVB1vbogVXxdERAuBr1Q/K6dEKKg+SE2G6m3bolrjUaJBA3S/bdTexseuyp1BN0Amw81SToLqRrvqqX2vogoe8NaTbdeK8XuIrqKSTB8GkPjjSWUacvkF6XnTFv2Tl+uqxdpjjJBt1XyFW1UtXVzVFQS6WVxcSfNbnQtue+WQvkc57zu5xuSqXytae6l3uM81iP1ClRkB7XbKoNWJGSCFlxP2upBk0zjE8Ob8Q1BX1tw3rn4llHDKqUESPiAcSeuy+UcLopMQxGno4GudLM4NaAvr3KmGjC8FpKJjbNhja352QdHDuF2mWGWonuI+J+/wAlxsA1Gq7vAmcmGRa/Fd34qDPREQEREBERAXO5wonS08dVE0l8Wjrb8v8A2XRIg8xc4OFwbqw8gbbrrsey9zh9RhzQH7uh2DvTzXJzQSxC88UkIJt+8YWrQxZWc260+LYHQ4rE5ldTtlaQW6gaDyK3TnAOIuCfIqCOa1ra6bqDx3EuC2ETukdR1E8Bcb/FcBYdPwOoWyg1GKTSNP3Ay34r2shoab7joqPcc7QX9ExHCYJwxy5hT2SNoxPKBq6Uk6+i7WngigYGQxtYwfdaLALJjhke9rGRPc4i9g0lXm4fXONm0VQSf+W7/RaFgb20Cq6brNGA4sSLUUu++n+qymZYxZwv4EYv0c8CyitOTt2VJde910EOUMSeP3j4YrbDmv8Akr8eS6su/eVkIb/S0kqDly7Sw6pzDtquwbkkXHPXEjraO36rIbkmhtZ1TUn0IH6IOELhbVU8+uvVeix5PwtoHO2V5HUvtf6LIjyxhLBY0of/AHuJTR5iX2dYG6pM3TfyXq8WA4XE7mZQwA7fDdZUdBSRuBjpoWkbEMAQeRwQz1F/Z6eWS2/IwlbCHAMXmLCyje1ruriG29V6qBZE0ecQZMxSS/iSQR225nE3+gWwgyKTyGprv7gxn5Ert0TRzNPkvDYr+I6eXtd9rfRbOhwHDaKRslPSsEjdnuu4/itmimgiIgIiICIiAiIgIiICIiAiIgIQHAgi4OhCIg8rxCjGH4tU0o0ax126fdOoWRBtot7nqiHPT1zRr/hPP4j9VooLWCouv2WO5X32sVYd+KmLFGu6i6kknpYKm5UEnVOmyN0CHuVQN7WUBNzvopGyCLa9k6+SH8E7IJ9FBJ07BA2yX03KCL7X6o7X0UXuiBtoNirbjY2PXVVnRUlu5PREcdxMopMQydiEEAu8suPkbr5TMYDib7aFfadXC2aMte0EEWI7rxHiBwpqTXSVuXWtLJdX05Ox8lrR4rLqFiFpXS1+V8bo5XMqcJrBY2uyMuH4K1DlzF5rCLC6tznbDwzqpRzzWm6yqaJ80rIo2udK42a1ouSu+wLhNmLE5G+0QtoYL6mRw5rei9myXw3wbLgEnhe01oIPjSWNvQJvwc9we4fOwwMxjFtaxw/dRkW8Md/VeyQt6BWWxi+lrLMpYXyyBkTXPedgBdRcZlBE+WZscYu5xsAu/pYvApo4hryNstVl3C3UcZmqG2mdoB/KFukQREQEREBERAREQEIB3AKIgwqnCcPqg/2iip3l4s4mMXPz3WtGT8AAI/ZsVjuOZ3+q36JowKfBsNp2NZDQ0zWgWH7sH8SsmKlp4R+5gij6+6wBXkQRygdApREBERAREQEREBERAREQEREBERAREQEREBERAREQEREBERAREQEREBERBg41Sitw2an5SS8e6ex3BXARMfHI9kjSHNNiD0K9NXKZpoPBn9riaeSTSS3Q91YNG9Y7xrdXnbeSsuKEUEaKLAqRe6pO9lmqbXtY+qnroDZNB6oLjc6KoXsLpcaeai/1QGw3QT67IdtlSTc2QlFTfX0UbqknVQ54G6Iq2UX7I1j3uaGMc8nYNFyVmQYTiE4PJRygj+YW/NXBh7qkk6rdQZYxF4bzMjjB3u/ULOiyfKf8arY3+xt/zUHKE6baK2Whwuei7yDKNG0N8WWaQjfUAFZ0OXcMivamDr/zOJVHmPhglvu+9tp1V2GhmmcBDTveQfuMJt9F6tDQUkIaI6aFvLseQXCyQANgAlqY81p8uYjMf8s5gIvd5AC2UGUap5BmkhjB3tdxC7hFFcxT5QgZy+NVSvsdmNDQR+JW/o6Kno4+SmiawdSBqfUrIRAREQEREBERAREQEREBERAREQEREBERAREQEREBERAREQEREBERAREQEREBERAREQEREBERAREQEREBERAREQFTLG2WNzJGhzHCxB6qpEHH4tgNRC9zqRplg35Qfeb/AKrQPBa8te0hw6EbL09Y9RRU1SbzwRvPcjVB5od9FSu9qMu0EoPI18bib3advqrUOV6BgPieLKT1c61vog4Z1gddFOrho0nvYXXo0WD4fEWltJFduxIuVlxwxRA+FExl9+VoCDzaLD62a3h0sx5tjyEA/NZkWXMTlF/BbHb+dw/Regog4uLKVU4t8WoiYOoAJIWZBk+AEmeqlf25QG/6rqEQaWLLOGx8pdE+Qj+d51WbDhVBDfw6SEX3926zUQQxjWNDWNDWjYAWAUoiAiIgIiICIiAiIgIiICIiAiIgIiICIiAiIgIiICIiAiIgIiICIiAiIgIiICIiAiIgIiICIiAiIgIiICIiAiIgIiICIiAiIgIiICIiAiIgIiICIiAiIgIiICIiAiIgIiICIiAiIgIiICIiAiIgIiICIiAiIg//2Q==;" vertex="1" parent="7">
                    <mxGeometry x="480" y="110" width="240" height="209.2" as="geometry"/>
                </mxCell>
                <mxCell id="14" value="" style="triangle;whiteSpace=wrap;html=1;fontSize=20;rotation=90;fillColor=#000000;" vertex="1" parent="7">
                    <mxGeometry x="140" y="157.5" width="15" height="25" as="geometry"/>
                </mxCell>
            </root>
        </mxGraphModel>
    </diagram>
</mxfile>